<?xml version="1.0" encoding="UTF-8" standalone="no"?>
<!-- Created with Inkscape (http://www.inkscape.org/) -->

<svg
   xmlns:dc="http://purl.org/dc/elements/1.1/"
   xmlns:cc="http://creativecommons.org/ns#"
   xmlns:rdf="http://www.w3.org/1999/02/22-rdf-syntax-ns#"
   xmlns:svg="http://www.w3.org/2000/svg"
   xmlns="http://www.w3.org/2000/svg"
   xmlns:sodipodi="http://sodipodi.sourceforge.net/DTD/sodipodi-0.dtd"
   xmlns:inkscape="http://www.inkscape.org/namespaces/inkscape"
   width="442.64969mm"
   height="158.89978mm"
   viewBox="0 0 442.64969 158.89978"
   version="1.1"
   id="svg8"
   sodipodi:docname="lifespananalysis_for_biologists_paths4.svg"
   inkscape:version="0.92.4 (5da689c313, 2019-01-14)"
   style="enable-background:new">
  <defs
     id="defs2" />
  <sodipodi:namedview
     id="base"
     pagecolor="#ffffff"
     bordercolor="#666666"
     borderopacity="1.0"
     inkscape:pageopacity="0.0"
     inkscape:pageshadow="2"
     inkscape:zoom="0.35"
     inkscape:cx="277.49128"
     inkscape:cy="479.03446"
     inkscape:document-units="mm"
     inkscape:current-layer="layer1"
     showgrid="false"
     inkscape:window-width="1920"
     inkscape:window-height="986"
     inkscape:window-x="-11"
     inkscape:window-y="-11"
     inkscape:window-maximized="1" />
  <metadata
     id="metadata5">
    <rdf:RDF>
      <cc:Work
         rdf:about="">
        <dc:format>image/svg+xml</dc:format>
        <dc:type
           rdf:resource="http://purl.org/dc/dcmitype/StillImage" />
        <dc:title></dc:title>
      </cc:Work>
    </rdf:RDF>
  </metadata>
  <g
     style="display:inline"
     id="g14703"
     inkscape:groupmode="layer"
     inkscape:label="Layer 1 copy"
     transform="translate(105.4611,-59.391856)">
    <flowRoot
       transform="scale(0.26458333)"
       style="font-style:normal;font-weight:normal;font-size:96px;line-height:10.25;font-family:sans-serif;letter-spacing:0px;word-spacing:0px;fill:#000000;fill-opacity:1;stroke:none"
       id="flowRoot14681"
       xml:space="preserve"><flowRegion
         id="flowRegion14673"><rect
           y="248.23398"
           x="148.57143"
           height="228.57143"
           width="540"
           id="rect14671" /></flowRegion><flowPara
         id="flowPara14675">Meta-analysis</flowPara><flowPara
         id="flowPara14677" /><flowPara
         id="flowPara14679" /></flowRoot>    <g
       aria-label="LIFESPAN-analysis
for 
Biologists
"
       transform="matrix(0.98683764,-0.05980443,0.05844474,1.009796,0,0)"
       style="font-style:normal;font-weight:normal;font-size:40.03949356px;line-height:1.25;font-family:sans-serif;text-align:center;letter-spacing:0px;word-spacing:0px;text-anchor:middle;fill:#01f733;fill-opacity:1;stroke:none;stroke-width:0.26499996;stroke-miterlimit:4;stroke-dasharray:none;stroke-opacity:0.39591836"
       id="text14693">
      <path
         d="m -89.705663,107.50317 h -20.380107 q -0.76075,0 -1.1211,-0.32032 -0.32032,-0.36036 -0.32032,-1.12111 V 80.116153 q 0,-0.760751 0.32032,-1.081067 0.36035,-0.360355 1.1211,-0.360355 h 6.20613 q 0.76075,0 1.08106,0.360355 0.36036,0.320316 0.36036,1.081067 v 19.819549 h 5.485409 v -6.486398 q 0,-0.76075 0.320316,-1.081066 0.360355,-0.360356 1.121105,-0.360356 h 5.805727 q 0.76075,0 1.081066,0.360356 0.360356,0.320316 0.360356,1.081066 v 12.612436 q 0,0.76075 -0.360356,1.12111 -0.320316,0.32032 -1.081066,0.32032 z"
         style="font-style:normal;font-variant:normal;font-weight:normal;font-stretch:normal;font-size:40.03949356px;line-height:1.25;font-family:Bungee;-inkscape-font-specification:'Bungee, Normal';font-variant-ligatures:normal;font-variant-caps:normal;font-variant-numeric:normal;font-feature-settings:normal;text-align:center;writing-mode:lr-tb;text-anchor:middle;fill:#01f733;fill-opacity:1;stroke:none;stroke-width:0.26499996;stroke-miterlimit:4;stroke-dasharray:none;stroke-opacity:0.39591836"
         id="path2056"
         inkscape:connector-curvature="0" />
      <path
         d="m -82.886437,107.50317 q -0.76075,0 -1.121106,-0.32032 -0.320316,-0.36036 -0.320316,-1.12111 v -4.7647 q 0,-0.76075 0.320316,-1.08106 0.360356,-0.360357 1.121106,-0.360357 h 3.96391 v -13.45327 h -3.96391 q -0.76075,0 -1.121106,-0.320316 -0.320316,-0.360355 -0.320316,-1.121106 v -4.844778 q 0,-0.760751 0.320316,-1.081067 0.360356,-0.360355 1.121106,-0.360355 h 17.056824 q 0.760751,0 1.081066,0.360355 0.360356,0.320316 0.360356,1.081067 v 4.844778 q 0,0.760751 -0.360356,1.121106 -0.320315,0.320316 -1.081066,0.320316 h -3.883831 v 13.45327 h 3.883831 q 0.760751,0 1.081066,0.360357 0.360356,0.32031 0.360356,1.08106 v 4.7647 q 0,0.76075 -0.360356,1.12111 -0.320315,0.32032 -1.081066,0.32032 z"
         style="font-style:normal;font-variant:normal;font-weight:normal;font-stretch:normal;font-size:40.03949356px;line-height:1.25;font-family:Bungee;-inkscape-font-specification:'Bungee, Normal';font-variant-ligatures:normal;font-variant-caps:normal;font-variant-numeric:normal;font-feature-settings:normal;text-align:center;writing-mode:lr-tb;text-anchor:middle;fill:#01f733;fill-opacity:1;stroke:none;stroke-width:0.26499996;stroke-miterlimit:4;stroke-dasharray:none;stroke-opacity:0.39591836"
         id="path2058"
         inkscape:connector-curvature="0" />
      <path
         d="m -51.797021,107.50317 h -6.206122 q -0.76075,0 -1.121106,-0.32032 -0.320316,-0.36036 -0.320316,-1.12111 V 80.116153 q 0,-0.760751 0.320316,-1.081067 0.360356,-0.360355 1.121106,-0.360355 h 17.857614 q 0.760751,0 1.081067,0.360355 0.360355,0.320316 0.360355,1.081067 v 4.764699 q 0,0.760751 -0.360355,1.121106 -0.320316,0.320316 -1.081067,0.320316 H -50.3556 v 4.164107 h 6.966872 q 0.760751,0 1.081067,0.360356 0.360355,0.320316 0.360355,1.081066 v 4.804739 q 0,0.760751 -0.360355,1.121106 -0.320316,0.320316 -1.081067,0.320316 H -50.3556 v 7.887776 q 0,0.76075 -0.360355,1.12111 -0.320316,0.32032 -1.081066,0.32032 z"
         style="font-style:normal;font-variant:normal;font-weight:normal;font-stretch:normal;font-size:40.03949356px;line-height:1.25;font-family:Bungee;-inkscape-font-specification:'Bungee, Normal';font-variant-ligatures:normal;font-variant-caps:normal;font-variant-numeric:normal;font-feature-settings:normal;text-align:center;writing-mode:lr-tb;text-anchor:middle;fill:#01f733;fill-opacity:1;stroke:none;stroke-width:0.26499996;stroke-miterlimit:4;stroke-dasharray:none;stroke-opacity:0.39591836"
         id="path2060"
         inkscape:connector-curvature="0" />
      <path
         d="m -14.712946,107.50317 h -18.578325 q -0.76075,0 -1.121106,-0.32032 -0.320315,-0.36036 -0.320315,-1.12111 V 80.116153 q 0,-0.760751 0.320315,-1.081067 0.360356,-0.360355 1.121106,-0.360355 h 18.578325 q 0.760751,0 1.081067,0.360355 0.360355,0.320316 0.360355,1.081067 v 4.68462 q 0,0.760751 -0.360355,1.121106 -0.320316,0.320316 -1.081067,0.320316 h -11.0509 v 3.083041 h 7.807701 q 0.760751,0 1.081067,0.360356 0.360355,0.320316 0.360355,1.081066 v 4.284226 q 0,0.76075 -0.360355,1.121106 -0.320316,0.320315 -1.081067,0.320315 h -7.807701 v 3.443397 h 11.0509 q 0.760751,0 1.081067,0.360358 0.360355,0.32031 0.360355,1.08106 v 4.68462 q 0,0.76075 -0.360355,1.12111 -0.320316,0.32032 -1.081067,0.32032 z"
         style="font-style:normal;font-variant:normal;font-weight:normal;font-stretch:normal;font-size:40.03949356px;line-height:1.25;font-family:Bungee;-inkscape-font-specification:'Bungee, Normal';font-variant-ligatures:normal;font-variant-caps:normal;font-variant-numeric:normal;font-feature-settings:normal;text-align:center;writing-mode:lr-tb;text-anchor:middle;fill:#01f733;fill-opacity:1;stroke:none;stroke-width:0.26499996;stroke-miterlimit:4;stroke-dasharray:none;stroke-opacity:0.39591836"
         id="path2062"
         inkscape:connector-curvature="0" />
      <path
         d="m 4.8382142,107.50317 h -12.65248 q -0.7607504,0 -1.1211058,-0.32032 -0.320316,-0.36036 -0.320316,-1.12111 v -4.68462 q 0,-0.76075 0.320316,-1.08106 0.3603554,-0.360358 1.1211058,-0.360358 H 2.956358 q 0.5205134,0 0.7607503,-0.320316 0.2802765,-0.360355 0.2802765,-0.840829 0,-0.680672 -0.2802765,-1.000988 Q 3.4768714,97.453253 2.956358,97.413214 l -6.0059241,-0.84083 Q -5.8523306,96.17199 -7.5740289,94.730568 -9.2556876,93.289146 -9.2556876,89.925829 v -4.204147 q 0,-3.403357 2.2021722,-5.205134 2.2021721,-1.841817 6.08600299,-1.841817 H 10.243546 q 0.76075,0 1.081066,0.360355 0.360356,0.320316 0.360356,1.081067 v 4.764699 q 0,0.760751 -0.360356,1.121106 -0.320316,0.320316 -1.081066,0.320316 H 0.91434378 q -0.52051341,0 -0.80078987,0.360356 -0.28027645,0.320315 -0.28027645,0.840829 0,0.520513 0.28027645,0.880869 0.28027646,0.360355 0.80078987,0.400395 l 5.96588452,0.80079 q 2.8027646,0.400395 4.5244627,1.841816 1.721698,1.441422 1.721698,4.80474 v 4.204151 q 0,3.40335 -2.242211,5.24517 -2.2021725,1.80178 -6.0459638,1.80178 z"
         style="font-style:normal;font-variant:normal;font-weight:normal;font-stretch:normal;font-size:40.03949356px;line-height:1.25;font-family:Bungee;-inkscape-font-specification:'Bungee, Normal';font-variant-ligatures:normal;font-variant-caps:normal;font-variant-numeric:normal;font-feature-settings:normal;text-align:center;writing-mode:lr-tb;text-anchor:middle;fill:#01f733;fill-opacity:1;stroke:none;stroke-width:0.26499996;stroke-miterlimit:4;stroke-dasharray:none;stroke-opacity:0.39591836"
         id="path2064"
         inkscape:connector-curvature="0" />
      <path
         d="m 25.15388,107.50317 h -6.206122 q -0.76075,0 -1.121106,-0.32032 -0.320316,-0.36036 -0.320316,-1.12111 V 80.116153 q 0,-0.760751 0.320316,-1.081067 0.360356,-0.360355 1.121106,-0.360355 h 12.252085 q 5.445371,0 7.447346,2.162132 2.001975,2.162133 2.001975,5.645569 v 5.125055 q 0,3.483436 -2.001975,5.645569 -2.001975,2.162132 -7.447346,2.162132 h -4.604541 v 6.646552 q 0,0.76075 -0.360356,1.12111 -0.320316,0.32032 -1.081066,0.32032 z m 1.361343,-21.341054 v 6.045964 h 3.603554 q 1.161145,0 1.521501,-0.600593 0.360355,-0.600592 0.360355,-1.361343 v -2.122093 q 0,-0.76075 -0.360355,-1.361342 -0.360356,-0.600593 -1.521501,-0.600593 z"
         style="font-style:normal;font-variant:normal;font-weight:normal;font-stretch:normal;font-size:40.03949356px;line-height:1.25;font-family:Bungee;-inkscape-font-specification:'Bungee, Normal';font-variant-ligatures:normal;font-variant-caps:normal;font-variant-numeric:normal;font-feature-settings:normal;text-align:center;writing-mode:lr-tb;text-anchor:middle;fill:#01f733;fill-opacity:1;stroke:none;stroke-width:0.26499996;stroke-miterlimit:4;stroke-dasharray:none;stroke-opacity:0.39591836"
         id="path2066"
         inkscape:connector-curvature="0" />
      <path
         d="m 54.858179,87.083024 -1.881856,6.086004 h 6.286201 L 57.380667,87.083024 Q 57.220509,86.722669 57.020312,86.562511 56.860154,86.402353 56.619917,86.402353 H 55.61893 q -0.240237,0 -0.440435,0.160158 -0.160158,0.160158 -0.320316,0.520513 z m -2.282251,18.978716 q 0,0.76075 -0.360355,1.12111 -0.320316,0.32032 -1.081067,0.32032 h -5.885805 q -0.760751,0 -1.121106,-0.32032 -0.320316,-0.36036 -0.320316,-1.12111 V 95.491318 q 0,-1.201185 0.360356,-2.762725 0.400394,-1.56154 1.201184,-3.643594 l 3.483436,-9.088965 q 0.240237,-0.680671 0.720711,-1.000987 0.520514,-0.320316 1.321303,-0.320316 h 10.770624 q 0.760751,0 1.241225,0.320316 0.520513,0.320316 0.76075,1.000987 l 3.483436,9.088965 q 0.80079,2.082054 1.161145,3.643594 0.400395,1.56154 0.400395,2.762725 v 10.570422 q 0,0.76075 -0.360355,1.12111 -0.320316,0.32032 -1.081067,0.32032 h -6.045963 q -0.80079,0 -1.201185,-0.32032 -0.360355,-0.36036 -0.360355,-1.12111 v -5.60552 h -7.086991 z"
         style="font-style:normal;font-variant:normal;font-weight:normal;font-stretch:normal;font-size:40.03949356px;line-height:1.25;font-family:Bungee;-inkscape-font-specification:'Bungee, Normal';font-variant-ligatures:normal;font-variant-caps:normal;font-variant-numeric:normal;font-feature-settings:normal;text-align:center;writing-mode:lr-tb;text-anchor:middle;fill:#01f733;fill-opacity:1;stroke:none;stroke-width:0.26499996;stroke-miterlimit:4;stroke-dasharray:none;stroke-opacity:0.39591836"
         id="path2068"
         inkscape:connector-curvature="0" />
      <path
         d="m 81.102822,107.50317 h -6.005924 q -0.760751,0 -1.121106,-0.32032 -0.320316,-0.36036 -0.320316,-1.12111 V 80.116153 q 0,-0.760751 0.320316,-1.081067 0.360355,-0.360355 1.121106,-0.360355 h 4.164107 q 0.76075,0 1.281264,0.240237 0.560553,0.240237 1.081066,0.840829 l 7.767662,8.888768 v -8.528412 q 0,-0.760751 0.320316,-1.081067 0.360355,-0.360355 1.121106,-0.360355 h 6.005924 q 0.76075,0 1.081066,0.360355 0.360355,0.320316 0.360355,1.081067 v 25.945587 q 0,0.76075 -0.360355,1.12111 -0.320316,0.32032 -1.081066,0.32032 h -6.005924 q -0.760751,0 -1.121106,-0.32032 -0.320316,-0.36036 -0.320316,-1.12111 v -4.92485 l -6.846754,-8.288178 v 13.213028 q 0,0.76075 -0.360355,1.12111 -0.320316,0.32032 -1.081066,0.32032 z"
         style="font-style:normal;font-variant:normal;font-weight:normal;font-stretch:normal;font-size:40.03949356px;line-height:1.25;font-family:Bungee;-inkscape-font-specification:'Bungee, Normal';font-variant-ligatures:normal;font-variant-caps:normal;font-variant-numeric:normal;font-feature-settings:normal;text-align:center;writing-mode:lr-tb;text-anchor:middle;fill:#01f733;fill-opacity:1;stroke:none;stroke-width:0.26499996;stroke-miterlimit:4;stroke-dasharray:none;stroke-opacity:0.39591836"
         id="path2070"
         inkscape:connector-curvature="0" />
      <path
         d="m 104.12177,97.213016 q -0.76075,0 -1.1211,-0.320316 -0.32032,-0.360355 -0.32032,-1.121105 v -5.365293 q 0,-0.76075 0.32032,-1.081066 0.36035,-0.360355 1.1211,-0.360355 h 10.73059 q 0.76075,0 1.08106,0.360355 0.36036,0.320316 0.36036,1.081066 v 5.365293 q 0,0.76075 -0.36036,1.121105 -0.32031,0.320316 -1.08106,0.320316 z"
         style="font-style:normal;font-variant:normal;font-weight:normal;font-stretch:normal;font-size:40.03949356px;line-height:1.25;font-family:Bungee;-inkscape-font-specification:'Bungee, Normal';font-variant-ligatures:normal;font-variant-caps:normal;font-variant-numeric:normal;font-feature-settings:normal;text-align:center;writing-mode:lr-tb;text-anchor:middle;fill:#01f733;fill-opacity:1;stroke:none;stroke-width:0.26499996;stroke-miterlimit:4;stroke-dasharray:none;stroke-opacity:0.39591836"
         id="path2072"
         inkscape:connector-curvature="0" />
      <path
         d="m 131.10526,87.083024 -1.88185,6.086004 h 6.2862 l -1.88186,-6.086004 q -0.16015,-0.360355 -0.36035,-0.520513 -0.16016,-0.160158 -0.4004,-0.160158 h -1.00098 q -0.24024,0 -0.44044,0.160158 -0.16016,0.160158 -0.32032,0.520513 z m -2.28225,18.978716 q 0,0.76075 -0.36035,1.12111 -0.32032,0.32032 -1.08107,0.32032 h -5.8858 q -0.76075,0 -1.12111,-0.32032 -0.32032,-0.36036 -0.32032,-1.12111 V 95.491318 q 0,-1.201185 0.36036,-2.762725 0.4004,-1.56154 1.20118,-3.643594 l 3.48344,-9.088965 q 0.24024,-0.680671 0.72071,-1.000987 0.52052,-0.320316 1.32131,-0.320316 h 10.77062 q 0.76075,0 1.24122,0.320316 0.52052,0.320316 0.76075,1.000987 l 3.48344,9.088965 q 0.80079,2.082054 1.16114,3.643594 0.4004,1.56154 0.4004,2.762725 v 10.570422 q 0,0.76075 -0.36036,1.12111 -0.32031,0.32032 -1.08106,0.32032 h -6.04597 q -0.80079,0 -1.20118,-0.32032 -0.36036,-0.36036 -0.36036,-1.12111 v -5.60552 h -7.08699 z"
         style="font-style:normal;font-variant:normal;font-weight:normal;font-stretch:normal;font-size:40.03949356px;line-height:1.25;font-family:Bungee;-inkscape-font-specification:'Bungee, Normal';font-variant-ligatures:normal;font-variant-caps:normal;font-variant-numeric:normal;font-feature-settings:normal;text-align:center;writing-mode:lr-tb;text-anchor:middle;fill:#01f733;fill-opacity:1;stroke:none;stroke-width:0.26499996;stroke-miterlimit:4;stroke-dasharray:none;stroke-opacity:0.39591836"
         id="path2074"
         inkscape:connector-curvature="0" />
      <path
         d="m 157.34991,107.50317 h -6.00593 q -0.76075,0 -1.1211,-0.32032 -0.32032,-0.36036 -0.32032,-1.12111 V 80.116153 q 0,-0.760751 0.32032,-1.081067 0.36035,-0.360355 1.1211,-0.360355 h 4.16411 q 0.76075,0 1.28126,0.240237 0.56056,0.240237 1.08107,0.840829 l 7.76766,8.888768 v -8.528412 q 0,-0.760751 0.32032,-1.081067 0.36035,-0.360355 1.1211,-0.360355 h 6.00593 q 0.76075,0 1.08106,0.360355 0.36036,0.320316 0.36036,1.081067 v 25.945587 q 0,0.76075 -0.36036,1.12111 -0.32031,0.32032 -1.08106,0.32032 h -6.00593 q -0.76075,0 -1.1211,-0.32032 -0.32032,-0.36036 -0.32032,-1.12111 v -4.92485 l -6.84675,-8.288178 v 13.213028 q 0,0.76075 -0.36036,1.12111 -0.32031,0.32032 -1.08106,0.32032 z"
         style="font-style:normal;font-variant:normal;font-weight:normal;font-stretch:normal;font-size:40.03949356px;line-height:1.25;font-family:Bungee;-inkscape-font-specification:'Bungee, Normal';font-variant-ligatures:normal;font-variant-caps:normal;font-variant-numeric:normal;font-feature-settings:normal;text-align:center;writing-mode:lr-tb;text-anchor:middle;fill:#01f733;fill-opacity:1;stroke:none;stroke-width:0.26499996;stroke-miterlimit:4;stroke-dasharray:none;stroke-opacity:0.39591836"
         id="path2076"
         inkscape:connector-curvature="0" />
      <path
         d="m 190.53887,87.083024 -1.88185,6.086004 h 6.2862 l -1.88186,-6.086004 q -0.16016,-0.360355 -0.36035,-0.520513 -0.16016,-0.160158 -0.4004,-0.160158 h -1.00099 q -0.24023,0 -0.44043,0.160158 -0.16016,0.160158 -0.32032,0.520513 z m -2.28225,18.978716 q 0,0.76075 -0.36035,1.12111 -0.32032,0.32032 -1.08107,0.32032 h -5.8858 q -0.76075,0 -1.12111,-0.32032 -0.32032,-0.36036 -0.32032,-1.12111 V 95.491318 q 0,-1.201185 0.36036,-2.762725 0.40039,-1.56154 1.20118,-3.643594 l 3.48344,-9.088965 q 0.24024,-0.680671 0.72071,-1.000987 0.52051,-0.320316 1.3213,-0.320316 h 10.77063 q 0.76075,0 1.24122,0.320316 0.52052,0.320316 0.76075,1.000987 l 3.48344,9.088965 q 0.80079,2.082054 1.16114,3.643594 0.4004,1.56154 0.4004,2.762725 v 10.570422 q 0,0.76075 -0.36036,1.12111 -0.32031,0.32032 -1.08106,0.32032 h -6.04597 q -0.80079,0 -1.20118,-0.32032 -0.36036,-0.36036 -0.36036,-1.12111 v -5.60552 h -7.08699 z"
         style="font-style:normal;font-variant:normal;font-weight:normal;font-stretch:normal;font-size:40.03949356px;line-height:1.25;font-family:Bungee;-inkscape-font-specification:'Bungee, Normal';font-variant-ligatures:normal;font-variant-caps:normal;font-variant-numeric:normal;font-feature-settings:normal;text-align:center;writing-mode:lr-tb;text-anchor:middle;fill:#01f733;fill-opacity:1;stroke:none;stroke-width:0.26499996;stroke-miterlimit:4;stroke-dasharray:none;stroke-opacity:0.39591836"
         id="path2078"
         inkscape:connector-curvature="0" />
      <path
         d="m 231.15771,107.50317 h -20.3801 q -0.76075,0 -1.12111,-0.32032 -0.32031,-0.36036 -0.32031,-1.12111 V 80.116153 q 0,-0.760751 0.32031,-1.081067 0.36036,-0.360355 1.12111,-0.360355 h 6.20612 q 0.76075,0 1.08107,0.360355 0.36035,0.320316 0.36035,1.081067 v 19.819549 h 5.48541 v -6.486398 q 0,-0.76075 0.32032,-1.081066 0.36035,-0.360356 1.1211,-0.360356 h 5.80573 q 0.76075,0 1.08107,0.360356 0.36035,0.320316 0.36035,1.081066 v 12.612436 q 0,0.76075 -0.36035,1.12111 -0.32032,0.32032 -1.08107,0.32032 z"
         style="font-style:normal;font-variant:normal;font-weight:normal;font-stretch:normal;font-size:40.03949356px;line-height:1.25;font-family:Bungee;-inkscape-font-specification:'Bungee, Normal';font-variant-ligatures:normal;font-variant-caps:normal;font-variant-numeric:normal;font-feature-settings:normal;text-align:center;writing-mode:lr-tb;text-anchor:middle;fill:#01f733;fill-opacity:1;stroke:none;stroke-width:0.26499996;stroke-miterlimit:4;stroke-dasharray:none;stroke-opacity:0.39591836"
         id="path2080"
         inkscape:connector-curvature="0" />
      <path
         d="m 249.7573,107.50317 h -6.4864 q -0.76075,0 -1.1211,-0.32032 -0.32032,-0.36036 -0.32032,-1.12111 v -5.12505 l -6.12604,-8.208097 q -0.92091,-1.241224 -1.24122,-2.162133 -0.28028,-0.920908 -0.28028,-2.762725 v -7.687582 q 0,-0.760751 0.32032,-1.081067 0.36035,-0.360355 1.1211,-0.360355 h 6.16608 q 0.76075,0 1.08107,0.360355 0.36036,0.320316 0.36036,1.081067 v 6.566477 q 0,0.400394 0.04,0.840829 0.04,0.440434 0.32032,0.840829 l 1.84182,2.882844 q 0.20019,0.360355 0.40039,0.520513 0.24024,0.160158 0.56056,0.160158 h 0.40039 q 0.32032,0 0.52051,-0.160158 0.24024,-0.160158 0.44044,-0.520513 l 1.84181,-2.882844 q 0.28028,-0.400395 0.32032,-0.840829 0.04,-0.440435 0.04,-0.840829 v -6.566477 q 0,-0.760751 0.32032,-1.081067 0.36035,-0.360355 1.1211,-0.360355 h 5.96589 q 0.76075,0 1.08106,0.360355 0.36036,0.320316 0.36036,1.081067 v 7.687582 q 0,1.841817 -0.32032,2.762725 -0.32031,0.920909 -1.20118,2.162133 l -6.08601,8.248137 v 5.08501 q 0,0.76075 -0.36035,1.12111 -0.32032,0.32032 -1.08107,0.32032 z"
         style="font-style:normal;font-variant:normal;font-weight:normal;font-stretch:normal;font-size:40.03949356px;line-height:1.25;font-family:Bungee;-inkscape-font-specification:'Bungee, Normal';font-variant-ligatures:normal;font-variant-caps:normal;font-variant-numeric:normal;font-feature-settings:normal;text-align:center;writing-mode:lr-tb;text-anchor:middle;fill:#01f733;fill-opacity:1;stroke:none;stroke-width:0.26499996;stroke-miterlimit:4;stroke-dasharray:none;stroke-opacity:0.39591836"
         id="path2082"
         inkscape:connector-curvature="0" />
      <path
         d="m 276.74704,107.50317 h -12.65248 q -0.76076,0 -1.12111,-0.32032 -0.32032,-0.36036 -0.32032,-1.12111 v -4.68462 q 0,-0.76075 0.32032,-1.08106 0.36035,-0.360358 1.12111,-0.360358 h 10.77062 q 0.52051,0 0.76075,-0.320316 0.28028,-0.360355 0.28028,-0.840829 0,-0.680672 -0.28028,-1.000988 -0.24024,-0.320316 -0.76075,-0.360355 l -6.00592,-0.84083 q -2.80277,-0.400394 -4.52447,-1.841816 -1.68166,-1.441422 -1.68166,-4.804739 v -4.204147 q 0,-3.403357 2.20218,-5.205134 2.20217,-1.841817 6.086,-1.841817 h 11.21106 q 0.76075,0 1.08106,0.360355 0.36036,0.320316 0.36036,1.081067 v 4.764699 q 0,0.760751 -0.36036,1.121106 -0.32031,0.320316 -1.08106,0.320316 h -9.32921 q -0.52051,0 -0.80078,0.360356 -0.28028,0.320315 -0.28028,0.840829 0,0.520513 0.28028,0.880869 0.28027,0.360355 0.80078,0.400395 l 5.96589,0.80079 q 2.80276,0.400395 4.52446,1.841816 1.7217,1.441422 1.7217,4.80474 v 4.204151 q 0,3.40335 -2.24221,5.24517 -2.20217,1.80178 -6.04596,1.80178 z"
         style="font-style:normal;font-variant:normal;font-weight:normal;font-stretch:normal;font-size:40.03949356px;line-height:1.25;font-family:Bungee;-inkscape-font-specification:'Bungee, Normal';font-variant-ligatures:normal;font-variant-caps:normal;font-variant-numeric:normal;font-feature-settings:normal;text-align:center;writing-mode:lr-tb;text-anchor:middle;fill:#01f733;fill-opacity:1;stroke:none;stroke-width:0.26499996;stroke-miterlimit:4;stroke-dasharray:none;stroke-opacity:0.39591836"
         id="path2084"
         inkscape:connector-curvature="0" />
      <path
         d="m 290.21596,107.50317 q -0.76076,0 -1.12111,-0.32032 -0.32032,-0.36036 -0.32032,-1.12111 v -4.7647 q 0,-0.76075 0.32032,-1.08106 0.36035,-0.360357 1.12111,-0.360357 h 3.9639 v -13.45327 h -3.9639 q -0.76076,0 -1.12111,-0.320316 -0.32032,-0.360355 -0.32032,-1.121106 v -4.844778 q 0,-0.760751 0.32032,-1.081067 0.36035,-0.360355 1.12111,-0.360355 h 17.05682 q 0.76075,0 1.08107,0.360355 0.36035,0.320316 0.36035,1.081067 v 4.844778 q 0,0.760751 -0.36035,1.121106 -0.32032,0.320316 -1.08107,0.320316 h -3.88383 v 13.45327 h 3.88383 q 0.76075,0 1.08107,0.360357 0.36035,0.32031 0.36035,1.08106 v 4.7647 q 0,0.76075 -0.36035,1.12111 -0.32032,0.32032 -1.08107,0.32032 z"
         style="font-style:normal;font-variant:normal;font-weight:normal;font-stretch:normal;font-size:40.03949356px;line-height:1.25;font-family:Bungee;-inkscape-font-specification:'Bungee, Normal';font-variant-ligatures:normal;font-variant-caps:normal;font-variant-numeric:normal;font-feature-settings:normal;text-align:center;writing-mode:lr-tb;text-anchor:middle;fill:#01f733;fill-opacity:1;stroke:none;stroke-width:0.26499996;stroke-miterlimit:4;stroke-dasharray:none;stroke-opacity:0.39591836"
         id="path2086"
         inkscape:connector-curvature="0" />
      <path
         d="m 327.031,107.50317 h -12.65248 q -0.76075,0 -1.1211,-0.32032 -0.32032,-0.36036 -0.32032,-1.12111 v -4.68462 q 0,-0.76075 0.32032,-1.08106 0.36035,-0.360358 1.1211,-0.360358 h 10.77063 q 0.52051,0 0.76075,-0.320316 0.28027,-0.360355 0.28027,-0.840829 0,-0.680672 -0.28027,-1.000988 -0.24024,-0.320316 -0.76075,-0.360355 l -6.00593,-0.84083 q -2.80276,-0.400394 -4.52446,-1.841816 -1.68166,-1.441422 -1.68166,-4.804739 v -4.204147 q 0,-3.403357 2.20217,-5.205134 2.20217,-1.841817 6.086,-1.841817 h 11.21106 q 0.76075,0 1.08107,0.360355 0.36035,0.320316 0.36035,1.081067 v 4.764699 q 0,0.760751 -0.36035,1.121106 -0.32032,0.320316 -1.08107,0.320316 h -9.3292 q -0.52051,0 -0.80079,0.360356 -0.28028,0.320315 -0.28028,0.840829 0,0.520513 0.28028,0.880869 0.28028,0.360355 0.80079,0.400395 l 5.96589,0.80079 q 2.80276,0.400395 4.52446,1.841816 1.7217,1.441422 1.7217,4.80474 v 4.204151 q 0,3.40335 -2.24222,5.24517 -2.20217,1.80178 -6.04596,1.80178 z"
         style="font-style:normal;font-variant:normal;font-weight:normal;font-stretch:normal;font-size:40.03949356px;line-height:1.25;font-family:Bungee;-inkscape-font-specification:'Bungee, Normal';font-variant-ligatures:normal;font-variant-caps:normal;font-variant-numeric:normal;font-feature-settings:normal;text-align:center;writing-mode:lr-tb;text-anchor:middle;fill:#01f733;fill-opacity:1;stroke:none;stroke-width:0.26499996;stroke-miterlimit:4;stroke-dasharray:none;stroke-opacity:0.39591836"
         id="path2088"
         inkscape:connector-curvature="0" />
      <path
         d="m 97.88405,118.2205 q 0.520514,-0.16015 1.161146,-0.16015 0.680672,-0.04 1.281264,0.28027 0.64063,0.28028 1.08107,0.96095 0.44043,0.64063 0.52051,1.84182 0.12012,2.44241 -0.48047,5.24518 -0.56056,2.76272 -1.681663,5.60553 -1.121106,2.80276 -2.682647,5.48541 -1.561541,2.68265 -3.443398,4.92486 -1.841818,2.20217 -3.923873,3.80375 -2.082054,1.56154 -4.204148,2.16214 l -0.440435,1.00099 q 0.480474,0.64063 0.880869,1.5215 0.400395,0.84083 0.720711,1.84181 2.442411,-0.28027 4.9649,-0.9209 2.562529,-0.64064 4.684623,-1.36135 2.122094,-0.76075 3.523477,-1.44142 1.441424,-0.68067 1.641624,-1.04103 0.24023,-0.40039 0.64063,-0.48047 0.44043,-0.0801 0.80079,0.12012 0.36035,0.16015 0.56055,0.56055 0.2002,0.4004 -0.04,1.00099 -0.16016,0.36035 -0.88087,0.92091 -0.72071,0.52051 -1.88185,1.1211 -1.16115,0.6006 -2.682651,1.24123 -1.521502,0.60059 -3.283241,1.16114 -1.761738,0.56056 -3.643595,1.00099 -1.881857,0.4004 -3.763714,0.60059 0.320316,1.52151 0.440434,2.88285 0.120119,1.36134 0.08008,2.20217 -0.120118,2.04202 -0.76075,4.00395 -0.600593,2.00198 -1.561541,3.72368 -0.960949,1.7217 -2.202174,3.12308 -1.241225,1.40138 -2.602568,2.28225 -1.401383,0.88087 -2.842805,1.16115 -1.481462,0.28028 -2.882845,-0.2002 -0.360356,-0.12012 -0.800791,-0.36035 -0.440434,-0.2002 -0.80079,-0.56056 -0.360355,-0.32031 -0.560553,-0.84083 -0.200198,-0.48047 -0.08008,-1.20118 0.08008,-0.48048 0.600593,-2.1221 0.480474,-1.60158 1.321304,-4.00395 0.840829,-2.40237 1.961936,-5.44537 1.121106,-3.04301 2.44241,-6.44636 -0.760751,-0.92091 -0.680672,-2.08206 0.120119,-1.68166 1.000988,-2.48245 0.84083,-0.80079 1.881857,-1.00099 1.401383,-3.44339 2.882845,-6.88679 1.521502,-3.48344 3.002964,-6.6866 1.521501,-3.20316 3.002963,-6.00593 1.481462,-2.80276 2.842805,-4.9649 1.401383,-2.16213 2.642608,-3.48343 1.241225,-1.32131 2.242213,-1.60159 z m -0.920909,4.40435 q -0.640632,1.3213 -1.721699,3.68364 -1.081067,2.36233 -2.402371,5.36529 -1.321304,3.00296 -2.842805,6.4864 -1.521502,3.4434 -3.083042,7.00692 1.881857,-1.24123 3.443398,-3.00297 1.60158,-1.76174 2.842805,-3.80375 1.281264,-2.04202 2.242213,-4.20415 0.960948,-2.20217 1.60158,-4.24419 0.640632,-2.08205 0.960949,-3.88383 0.360355,-1.80178 0.440434,-3.08304 0.08008,-1.60158 -0.400395,-1.64162 -0.440435,-0.0801 -1.081067,1.3213 z M 83.91026,155.33713 q -0.720711,0 -1.361343,-0.12012 -1.241225,2.92289 -2.282253,5.48542 -1.081066,2.60257 -1.881857,4.5645 -0.80079,1.96194 -1.241225,3.16312 -0.480474,1.24123 -0.480474,1.48147 -0.04004,1.24122 0.480474,1.5215 0.480475,0.28027 1.281265,-0.16016 0.760751,-0.44044 1.721699,-1.56154 0.960948,-1.08107 1.761738,-2.60257 0.84083,-1.5215 1.441423,-3.40336 0.600593,-1.84182 0.720711,-3.88383 0.04004,-0.4004 0.04004,-1.68166 0,-1.28127 -0.04004,-2.80277 z m -0.320316,-2.52249 q 0.120118,0.04 0.320316,0.04 0,-0.16015 -0.04004,-0.32031 0,-0.16016 0,-0.32032 z"
         style="font-style:normal;font-variant:normal;font-weight:normal;font-stretch:normal;font-size:40.03951263px;font-family:'Bite Chocolate';-inkscape-font-specification:'Bite Chocolate, Normal';font-variant-ligatures:normal;font-variant-caps:normal;font-variant-numeric:normal;font-feature-settings:normal;text-align:center;writing-mode:lr-tb;text-anchor:middle;fill:#01f733;fill-opacity:1;stroke:none;stroke-width:0.26499996"
         id="path2090"
         inkscape:connector-curvature="0" />
      <path
         d="m 96.914968,155.41721 q -0.480474,-2.12209 -0.200197,-3.88383 0.240237,-1.80178 1.000988,-3.2432 0.76075,-1.44142 1.881857,-2.48245 1.161144,-1.08107 2.442414,-1.76174 0.36035,-0.88087 0.96094,-1.68166 0.6006,-0.84083 1.40139,-1.44142 0.80079,-0.64063 1.7217,-1.04103 0.92091,-0.40039 1.92189,-0.48047 1.88186,-0.16016 3.2432,0.36035 1.36135,0.48048 2.24222,1.40139 0.9209,0.88086 1.40138,2.08205 0.52051,1.16115 0.72071,2.32229 0.28028,1.60158 0,3.32328 -0.28028,1.7217 -0.96095,3.40336 2.04202,-0.48047 3.72368,-1.44142 1.7217,-1.00099 3.043,-2.08206 1.36134,-1.1211 2.36233,-2.12209 1.04103,-1.04103 1.7217,-1.64162 0.36036,-0.28028 0.72071,-0.2002 0.4004,0.04 0.68067,0.32032 0.32032,0.24023 0.4004,0.68067 0.12012,0.44043 -0.0801,0.84083 -0.52051,1.04103 -1.80178,2.56253 -1.28126,1.5215 -3.20316,2.92288 -1.88186,1.40138 -4.32427,2.48245 -2.44241,1.04103 -5.28521,1.20119 -1.64162,2.16213 -3.80376,3.56351 -2.12209,1.36135 -4.44438,1.32131 -2.16214,-0.04 -3.56352,-0.68067 -1.361343,-0.64064 -2.202173,-1.48147 -0.840829,-0.84083 -1.201185,-1.68166 -0.400395,-0.88086 -0.520514,-1.44142 z m 11.211062,-3.28324 q 1.60158,0.4004 3.08304,0.48048 0.72072,-1.52151 1.04103,-3.20317 0.36036,-1.68165 0.2002,-3.28324 -0.0801,-1.04102 -0.32032,-1.92189 -0.24023,-0.92091 -0.80079,-1.56154 -0.52051,-0.68067 -1.44142,-1.00099 -0.88087,-0.32032 -2.24221,-0.16016 -0.72071,0.12012 -1.28127,0.56055 -0.56055,0.4004 -0.96095,0.96095 1.20119,-0.16016 2.28226,0.0801 0.40039,0.0801 0.80079,0.72071 0.40039,0.64064 0.64063,1.40139 0.28028,0.72071 0.32032,1.3213 0.04,0.56055 -0.2002,0.52051 -2.76273,-0.36035 -4.60455,0.32032 0,0.60059 0.0801,1.3213 0.0801,0.72071 0.4004,1.40139 0.32031,0.64063 1.00099,1.20118 0.72071,0.52052 2.00197,0.84083 z m -0.36035,3.12308 q -1.56154,-0.44043 -2.64261,-1.00098 -1.04103,-0.6006 -1.7217,-1.28127 -0.68067,-0.68067 -1.04103,-1.44142 -0.32031,-0.80079 -0.48047,-1.64162 -0.44044,0.92091 -0.60059,2.04201 -0.12012,1.08107 0.04,2.28226 0.24024,1.80177 1.16115,2.6426 0.96095,0.84083 2.36233,0.80079 1.24123,0 2.32229,-0.56055 1.12111,-0.56055 2.04202,-1.48146 -0.72071,-0.12012 -1.44142,-0.36036 z"
         style="font-style:normal;font-variant:normal;font-weight:normal;font-stretch:normal;font-size:40.03951263px;font-family:'Bite Chocolate';-inkscape-font-specification:'Bite Chocolate, Normal';font-variant-ligatures:normal;font-variant-caps:normal;font-variant-numeric:normal;font-feature-settings:normal;text-align:center;writing-mode:lr-tb;text-anchor:middle;fill:#01f733;fill-opacity:1;stroke:none;stroke-width:0.26499996"
         id="path2092"
         inkscape:connector-curvature="0" />
      <path
         d="m 125.09403,136.67872 q 2.24221,-0.32032 3.32328,0.84083 1.08106,1.16115 0.88087,3.4434 -0.0801,1.28126 -0.44044,2.36233 -0.32032,1.04103 -0.80079,1.84182 0.88087,-0.24024 1.7217,-0.56056 0.88087,-0.32031 1.60158,-0.60059 0.72071,-0.28028 1.24122,-0.48047 0.52052,-0.24024 0.76076,-0.28028 0.44043,-0.0801 0.88086,0.44043 0.44044,0.52052 0.76076,1.24123 0.32031,0.68067 0.44043,1.36134 0.16016,0.64064 0.04,0.80079 -1.9219,2.68265 -2.96292,4.68463 -1.00099,1.96193 -1.40139,3.36332 -0.40039,1.40138 -0.32031,2.32229 0.0801,0.88087 0.40039,1.40138 0.36036,0.52051 0.80079,0.72071 0.48048,0.2002 0.84083,0.2002 1.24123,0.04 2.56253,-0.84083 1.36134,-0.88087 2.68265,-2.24221 1.3213,-1.36135 2.52249,-3.00297 1.20118,-1.64162 2.12209,-3.12308 0.92091,-1.5215 1.5215,-2.68265 0.6006,-1.16114 0.72071,-1.56154 0.12012,-0.40039 0.4004,-0.56055 0.32032,-0.16016 0.64063,-0.0801 0.32032,0.04 0.60059,0.32032 0.32032,0.28027 0.44044,0.76075 0.12012,0.44043 -0.52051,1.88185 -0.64064,1.44143 -1.84182,3.36332 -1.16115,1.88186 -2.80277,3.96392 -1.60158,2.04201 -3.48344,3.68363 -1.84181,1.64162 -3.84379,2.60257 -2.00197,1.00099 -3.96391,0.68067 -2.04202,-0.32032 -3.2432,-1.7217 -1.16115,-1.36134 -1.36134,-3.36332 -0.2002,-2.04201 0.64063,-4.48442 0.84083,-2.44241 2.88284,-4.84478 0.0801,-0.12012 0.12012,-0.28028 0.04,-0.2002 -0.04,-0.32032 -0.0801,-0.16016 -0.28028,-0.16016 -0.16015,-0.04 -0.52051,0.24024 -0.24024,0.2002 -0.96095,0.44044 -0.72071,0.24023 -1.64162,0.32031 -0.92091,0.0801 -1.96193,-0.04 -1.00099,-0.12012 -1.88186,-0.68067 -0.84083,-0.56055 -1.44142,-1.64162 -0.6006,-1.08107 -0.68067,-2.8428 -0.04,-0.76075 0.24023,-1.88186 0.24024,-1.12111 0.84083,-2.16213 0.6006,-1.04103 1.5215,-1.84182 0.96095,-0.80079 2.24222,-1.00099 z m -1.80178,8.24814 q 0.2002,0.48047 0.80079,0.68067 0.48047,-0.68067 0.96095,-1.76174 0.52051,-1.08106 0.72071,-2.60257 0.2002,-1.28126 -0.32032,-1.68166 -0.48047,-0.40039 -1.36134,0.8008 -0.60059,0.84082 -0.88087,1.56154 -0.24024,0.72071 -0.28028,1.3213 0,0.56055 0.12012,1.00099 0.12012,0.40039 0.24024,0.68067 z"
         style="font-style:normal;font-variant:normal;font-weight:normal;font-stretch:normal;font-size:40.03951263px;font-family:'Bite Chocolate';-inkscape-font-specification:'Bite Chocolate, Normal';font-variant-ligatures:normal;font-variant-caps:normal;font-variant-numeric:normal;font-feature-settings:normal;text-align:center;writing-mode:lr-tb;text-anchor:middle;fill:#01f733;fill-opacity:1;stroke:none;stroke-width:0.26499996"
         id="path2094"
         inkscape:connector-curvature="0" />
      <path
         d="M -4.4262339,214.91591 H -19.801399 q -0.760751,0 -1.121106,-0.32032 -0.320316,-0.36035 -0.320316,-1.1211 V 187.5289 q 0,-0.76076 0.320316,-1.08107 0.360355,-0.36036 1.121106,-0.36036 h 12.772598 q 3.9238703,0 5.8057265,1.5215 1.88185624,1.48147 1.88185624,4.60455 v 1.92189 q 0,1.68166 -0.6005924,2.76273 -0.56055291,1.04102 -1.76173774,1.56154 2.56252761,0.24023 3.8037519,1.76173 1.2412243,1.52151 1.2412243,4.44439 v 3.68363 q 0,3.36332 -1.9218957,4.9649 -1.88185618,1.60158 -5.845766,1.60158 z m -7.8077011,-22.02172 v 4.32426 h 3.4033568 q 0.7607503,0 1.1211058,-0.40039 0.4003949,-0.4004 0.4003949,-1.20119 v -1.1211 q 0,-0.80079 -0.4003949,-1.20119 -0.3603555,-0.40039 -1.1211058,-0.40039 z m 0,10.49034 v 4.72466 h 5.205134 q 0.7607504,0 1.1211058,-0.40039 0.4003949,-0.40039 0.4003949,-1.20118 v -1.56155 q 0,-0.80078 -0.4003949,-1.16114 -0.3603554,-0.4004 -1.1211058,-0.4004 z"
         style="font-style:normal;font-variant:normal;font-weight:normal;font-stretch:normal;font-size:40.03949356px;line-height:1.25;font-family:Bungee;-inkscape-font-specification:'Bungee, Normal';font-variant-ligatures:normal;font-variant-caps:normal;font-variant-numeric:normal;font-feature-settings:normal;text-align:center;writing-mode:lr-tb;text-anchor:middle;fill:#01f733;fill-opacity:1;stroke:none;stroke-width:0.26499996;stroke-miterlimit:4;stroke-dasharray:none;stroke-opacity:0.39591836"
         id="path2096"
         inkscape:connector-curvature="0" />
      <path
         d="m 8.5709615,214.91591 q -0.7607504,0 -1.1211058,-0.32032 -0.320316,-0.36035 -0.320316,-1.1211 v -4.7647 q 0,-0.76075 0.320316,-1.08107 0.3603554,-0.36035 1.1211058,-0.36035 H 12.534871 V 193.8151 H 8.5709615 q -0.7607504,0 -1.1211058,-0.32032 -0.320316,-0.36036 -0.320316,-1.12111 v -4.84477 q 0,-0.76076 0.320316,-1.08107 0.3603554,-0.36036 1.1211058,-0.36036 H 25.627786 q 0.76075,0 1.081066,0.36036 0.360356,0.32031 0.360356,1.08107 v 4.84477 q 0,0.76075 -0.360356,1.12111 -0.320316,0.32032 -1.081066,0.32032 h -3.883831 v 13.45327 h 3.883831 q 0.76075,0 1.081066,0.36035 0.360356,0.32032 0.360356,1.08107 v 4.7647 q 0,0.76075 -0.360356,1.1211 -0.320316,0.32032 -1.081066,0.32032 z"
         style="font-style:normal;font-variant:normal;font-weight:normal;font-stretch:normal;font-size:40.03949356px;line-height:1.25;font-family:Bungee;-inkscape-font-specification:'Bungee, Normal';font-variant-ligatures:normal;font-variant-caps:normal;font-variant-numeric:normal;font-feature-settings:normal;text-align:center;writing-mode:lr-tb;text-anchor:middle;fill:#01f733;fill-opacity:1;stroke:none;stroke-width:0.26499996;stroke-miterlimit:4;stroke-dasharray:none;stroke-opacity:0.39591836"
         id="path2098"
         inkscape:connector-curvature="0" />
      <path
         d="m 56.436923,207.34844 q 0,1.84182 -0.560553,3.36332 -0.520513,1.48146 -1.921895,2.56253 -1.361343,1.04103 -3.803752,1.64162 -2.40237,0.60059 -6.126043,0.60059 -3.723673,0 -6.166082,-0.60059 -2.442409,-0.60059 -3.843791,-1.64162 -1.361343,-1.08107 -1.921896,-2.56253 -0.520513,-1.5215 -0.520513,-3.36332 v -13.65346 q 0,-1.84182 0.520513,-3.32328 0.560553,-1.5215 1.921896,-2.60257 1.401382,-1.08106 3.843791,-1.68166 2.442409,-0.60059 6.166082,-0.60059 3.723673,0 6.126043,0.60059 2.442409,0.6006 3.803752,1.68166 1.401382,1.08107 1.921895,2.60257 0.560553,1.48146 0.560553,3.32328 z m -15.77556,-1.44142 q 0,0.80079 0.600592,1.36135 0.600593,0.52051 2.762725,0.52051 2.162133,0 2.762725,-0.52051 0.600593,-0.56056 0.600593,-1.36135 V 195.1364 q 0,-0.76075 -0.600593,-1.28126 -0.600592,-0.56056 -2.762725,-0.56056 -2.162132,0 -2.762725,0.56056 -0.600592,0.52051 -0.600592,1.28126 z"
         style="font-style:normal;font-variant:normal;font-weight:normal;font-stretch:normal;font-size:40.03949356px;line-height:1.25;font-family:Bungee;-inkscape-font-specification:'Bungee, Normal';font-variant-ligatures:normal;font-variant-caps:normal;font-variant-numeric:normal;font-feature-settings:normal;text-align:center;writing-mode:lr-tb;text-anchor:middle;fill:#01f733;fill-opacity:1;stroke:none;stroke-width:0.26499996;stroke-miterlimit:4;stroke-dasharray:none;stroke-opacity:0.39591836"
         id="path2100"
         inkscape:connector-curvature="0" />
      <path
         d="M 83.316564,214.91591 H 62.936462 q -0.76075,0 -1.121106,-0.32032 -0.320316,-0.36035 -0.320316,-1.1211 V 187.5289 q 0,-0.76076 0.320316,-1.08107 0.360356,-0.36036 1.121106,-0.36036 h 6.206122 q 0.76075,0 1.081066,0.36036 0.360355,0.32031 0.360355,1.08107 v 19.81954 h 5.485411 v -6.48639 q 0,-0.76075 0.320316,-1.08107 0.360355,-0.36036 1.121106,-0.36036 h 5.805726 q 0.760751,0 1.081067,0.36036 0.360355,0.32032 0.360355,1.08107 v 12.61244 q 0,0.76075 -0.360355,1.1211 -0.320316,0.32032 -1.081067,0.32032 z"
         style="font-style:normal;font-variant:normal;font-weight:normal;font-stretch:normal;font-size:40.03949356px;line-height:1.25;font-family:Bungee;-inkscape-font-specification:'Bungee, Normal';font-variant-ligatures:normal;font-variant-caps:normal;font-variant-numeric:normal;font-feature-settings:normal;text-align:center;writing-mode:lr-tb;text-anchor:middle;fill:#01f733;fill-opacity:1;stroke:none;stroke-width:0.26499996;stroke-miterlimit:4;stroke-dasharray:none;stroke-opacity:0.39591836"
         id="path2102"
         inkscape:connector-curvature="0" />
      <path
         d="m 113.75909,207.34844 q 0,1.84182 -0.56055,3.36332 -0.52052,1.48146 -1.9219,2.56253 -1.36134,1.04103 -3.80375,1.64162 -2.40237,0.60059 -6.12604,0.60059 -3.723676,0 -6.166085,-0.60059 -2.442409,-0.60059 -3.843792,-1.64162 -1.361343,-1.08107 -1.921895,-2.56253 -0.520514,-1.5215 -0.520514,-3.36332 v -13.65346 q 0,-1.84182 0.520514,-3.32328 0.560552,-1.5215 1.921895,-2.60257 1.401383,-1.08106 3.843792,-1.68166 2.442409,-0.60059 6.166085,-0.60059 3.72367,0 6.12604,0.60059 2.44241,0.6006 3.80375,1.68166 1.40138,1.08107 1.9219,2.60257 0.56055,1.48146 0.56055,3.32328 z m -15.775561,-1.44142 q 0,0.80079 0.600593,1.36135 0.600592,0.52051 2.762728,0.52051 2.16213,0 2.76272,-0.52051 0.60059,-0.56056 0.60059,-1.36135 V 195.1364 q 0,-0.76075 -0.60059,-1.28126 -0.60059,-0.56056 -2.76272,-0.56056 -2.162136,0 -2.762728,0.56056 -0.600593,0.52051 -0.600593,1.28126 z"
         style="font-style:normal;font-variant:normal;font-weight:normal;font-stretch:normal;font-size:40.03949356px;line-height:1.25;font-family:Bungee;-inkscape-font-specification:'Bungee, Normal';font-variant-ligatures:normal;font-variant-caps:normal;font-variant-numeric:normal;font-feature-settings:normal;text-align:center;writing-mode:lr-tb;text-anchor:middle;fill:#01f733;fill-opacity:1;stroke:none;stroke-width:0.26499996;stroke-miterlimit:4;stroke-dasharray:none;stroke-opacity:0.39591836"
         id="path2104"
         inkscape:connector-curvature="0" />
      <path
         d="m 140.83893,214.91591 h -12.61244 q -5.00494,0 -7.44735,-2.00198 -2.40237,-2.00197 -2.40237,-6.16608 v -12.49232 q 0,-4.16411 2.40237,-6.16608 2.44241,-2.00198 7.44735,-2.00198 h 10.00987 q 0.76075,0 1.08107,0.36036 0.36035,0.32031 0.36035,1.08107 v 4.84477 q 0,0.76075 -0.36035,1.12111 -0.32032,0.32032 -1.08107,0.32032 h -8.32821 q -1.24123,0 -1.84182,0.52051 -0.60059,0.48047 -0.60059,1.48146 v 9.56944 q 0,1.00099 0.44043,1.48146 0.48048,0.48047 1.40138,0.48047 h 3.88384 v -6.24616 q 0,-0.76075 0.32031,-1.08106 0.36036,-0.36036 1.12111,-0.36036 h 6.20612 q 0.76075,0 1.08106,0.36036 0.36036,0.32031 0.36036,1.08106 v 12.37221 q 0,0.76075 -0.36036,1.1211 -0.32031,0.32032 -1.08106,0.32032 z"
         style="font-style:normal;font-variant:normal;font-weight:normal;font-stretch:normal;font-size:40.03949356px;line-height:1.25;font-family:Bungee;-inkscape-font-specification:'Bungee, Normal';font-variant-ligatures:normal;font-variant-caps:normal;font-variant-numeric:normal;font-feature-settings:normal;text-align:center;writing-mode:lr-tb;text-anchor:middle;fill:#01f733;fill-opacity:1;stroke:none;stroke-width:0.26499996;stroke-miterlimit:4;stroke-dasharray:none;stroke-opacity:0.39591836"
         id="path2106"
         inkscape:connector-curvature="0" />
      <path
         d="m 148.00537,214.91591 q -0.76075,0 -1.1211,-0.32032 -0.32032,-0.36035 -0.32032,-1.1211 v -4.7647 q 0,-0.76075 0.32032,-1.08107 0.36035,-0.36035 1.1211,-0.36035 h 3.96391 V 193.8151 h -3.96391 q -0.76075,0 -1.1211,-0.32032 -0.32032,-0.36036 -0.32032,-1.12111 v -4.84477 q 0,-0.76076 0.32032,-1.08107 0.36035,-0.36036 1.1211,-0.36036 h 17.05683 q 0.76075,0 1.08106,0.36036 0.36036,0.32031 0.36036,1.08107 v 4.84477 q 0,0.76075 -0.36036,1.12111 -0.32031,0.32032 -1.08106,0.32032 h -3.88384 v 13.45327 h 3.88384 q 0.76075,0 1.08106,0.36035 0.36036,0.32032 0.36036,1.08107 v 4.7647 q 0,0.76075 -0.36036,1.1211 -0.32031,0.32032 -1.08106,0.32032 z"
         style="font-style:normal;font-variant:normal;font-weight:normal;font-stretch:normal;font-size:40.03949356px;line-height:1.25;font-family:Bungee;-inkscape-font-specification:'Bungee, Normal';font-variant-ligatures:normal;font-variant-caps:normal;font-variant-numeric:normal;font-feature-settings:normal;text-align:center;writing-mode:lr-tb;text-anchor:middle;fill:#01f733;fill-opacity:1;stroke:none;stroke-width:0.26499996;stroke-miterlimit:4;stroke-dasharray:none;stroke-opacity:0.39591836"
         id="path2108"
         inkscape:connector-curvature="0" />
      <path
         d="m 184.82043,214.91591 h -12.65248 q -0.76075,0 -1.1211,-0.32032 -0.32032,-0.36035 -0.32032,-1.1211 v -4.68462 q 0,-0.76075 0.32032,-1.08107 0.36035,-0.36036 1.1211,-0.36036 h 10.77063 q 0.52051,0 0.76075,-0.32031 0.28027,-0.36036 0.28027,-0.84083 0,-0.68067 -0.28027,-1.00099 -0.24024,-0.32031 -0.76075,-0.36035 l -6.00593,-0.84083 q -2.80276,-0.4004 -4.52446,-1.84182 -1.68166,-1.44142 -1.68166,-4.80474 v -4.20415 q 0,-3.40335 2.20217,-5.20513 2.20218,-1.84182 6.08601,-1.84182 h 11.21105 q 0.76076,0 1.08107,0.36036 0.36036,0.32031 0.36036,1.08107 v 4.76469 q 0,0.76076 -0.36036,1.12111 -0.32031,0.32032 -1.08107,0.32032 h -9.3292 q -0.52051,0 -0.80079,0.36035 -0.28027,0.32032 -0.28027,0.84083 0,0.52051 0.28027,0.88087 0.28028,0.36036 0.80079,0.4004 l 5.96589,0.80079 q 2.80276,0.40039 4.52446,1.84181 1.7217,1.44142 1.7217,4.80474 v 4.20415 q 0,3.40335 -2.24221,5.24517 -2.20218,1.80178 -6.04597,1.80178 z"
         style="font-style:normal;font-variant:normal;font-weight:normal;font-stretch:normal;font-size:40.03949356px;line-height:1.25;font-family:Bungee;-inkscape-font-specification:'Bungee, Normal';font-variant-ligatures:normal;font-variant-caps:normal;font-variant-numeric:normal;font-feature-settings:normal;text-align:center;writing-mode:lr-tb;text-anchor:middle;fill:#01f733;fill-opacity:1;stroke:none;stroke-width:0.26499996;stroke-miterlimit:4;stroke-dasharray:none;stroke-opacity:0.39591836"
         id="path2110"
         inkscape:connector-curvature="0" />
      <path
         d="m 210.71097,214.91591 h -6.4864 q -0.76075,0 -1.1211,-0.32032 -0.32032,-0.36035 -0.32032,-1.1211 V 193.8151 h -5.88581 q -0.76075,0 -1.1211,-0.32032 -0.32032,-0.36036 -0.32032,-1.12111 v -4.84477 q 0,-0.76076 0.32032,-1.08107 0.36035,-0.36036 1.1211,-0.36036 h 21.14086 q 0.76075,0 1.08106,0.36036 0.36036,0.32031 0.36036,1.08107 v 4.84477 q 0,0.76075 -0.36036,1.12111 -0.32031,0.32032 -1.08106,0.32032 h -5.88581 v 19.65939 q 0,0.76075 -0.36035,1.1211 -0.32032,0.32032 -1.08107,0.32032 z"
         style="font-style:normal;font-variant:normal;font-weight:normal;font-stretch:normal;font-size:40.03949356px;line-height:1.25;font-family:Bungee;-inkscape-font-specification:'Bungee, Normal';font-variant-ligatures:normal;font-variant-caps:normal;font-variant-numeric:normal;font-feature-settings:normal;text-align:center;writing-mode:lr-tb;text-anchor:middle;fill:#01f733;fill-opacity:1;stroke:none;stroke-width:0.26499996;stroke-miterlimit:4;stroke-dasharray:none;stroke-opacity:0.39591836"
         id="path2112"
         inkscape:connector-curvature="0" />
      <path
         d="m 236.74664,214.91591 h -12.65248 q -0.76075,0 -1.1211,-0.32032 -0.32032,-0.36035 -0.32032,-1.1211 v -4.68462 q 0,-0.76075 0.32032,-1.08107 0.36035,-0.36036 1.1211,-0.36036 h 10.77063 q 0.52051,0 0.76075,-0.32031 0.28027,-0.36036 0.28027,-0.84083 0,-0.68067 -0.28027,-1.00099 -0.24024,-0.32031 -0.76075,-0.36035 l -6.00593,-0.84083 q -2.80276,-0.4004 -4.52446,-1.84182 -1.68166,-1.44142 -1.68166,-4.80474 v -4.20415 q 0,-3.40335 2.20217,-5.20513 2.20217,-1.84182 6.08601,-1.84182 h 11.21105 q 0.76075,0 1.08107,0.36036 0.36035,0.32031 0.36035,1.08107 v 4.76469 q 0,0.76076 -0.36035,1.12111 -0.32032,0.32032 -1.08107,0.32032 h -9.3292 q -0.52051,0 -0.80079,0.36035 -0.28028,0.32032 -0.28028,0.84083 0,0.52051 0.28028,0.88087 0.28028,0.36036 0.80079,0.4004 l 5.96589,0.80079 q 2.80276,0.40039 4.52446,1.84181 1.7217,1.44142 1.7217,4.80474 v 4.20415 q 0,3.40335 -2.24221,5.24517 -2.20218,1.80178 -6.04597,1.80178 z"
         style="font-style:normal;font-variant:normal;font-weight:normal;font-stretch:normal;font-size:40.03949356px;line-height:1.25;font-family:Bungee;-inkscape-font-specification:'Bungee, Normal';font-variant-ligatures:normal;font-variant-caps:normal;font-variant-numeric:normal;font-feature-settings:normal;text-align:center;writing-mode:lr-tb;text-anchor:middle;fill:#01f733;fill-opacity:1;stroke:none;stroke-width:0.26499996;stroke-miterlimit:4;stroke-dasharray:none;stroke-opacity:0.39591836"
         id="path2114"
         inkscape:connector-curvature="0" />
    </g>
    <flowRoot
       transform="scale(0.26458333)"
       style="font-style:normal;font-weight:normal;font-size:96px;line-height:10.25;font-family:sans-serif;letter-spacing:0px;word-spacing:0px;fill:#000000;fill-opacity:1;stroke:none"
       id="flowRoot14701"
       xml:space="preserve"><flowRegion
         id="flowRegion14697"><rect
           y="285.37683"
           x="180"
           height="1922.8572"
           width="600"
           id="rect14695" /></flowRegion><flowPara
         id="flowPara14699" /></flowRoot>  </g>
  <g
     inkscape:label="Layer 1"
     inkscape:groupmode="layer"
     id="layer1"
     style="display:inline"
     transform="translate(105.4611,-59.391856)">
    <flowRoot
       xml:space="preserve"
       id="flowRoot4518"
       style="font-style:normal;font-weight:normal;font-size:96px;line-height:10.25;font-family:sans-serif;letter-spacing:0px;word-spacing:0px;fill:#000000;fill-opacity:1;stroke:none"
       transform="scale(0.26458333)"><flowRegion
         id="flowRegion4520"><rect
           id="rect4522"
           width="540"
           height="228.57143"
           x="148.57143"
           y="248.23398" /></flowRegion><flowPara
         id="flowPara4524">Meta-analysis</flowPara><flowPara
         id="flowPara4526" /><flowPara
         id="flowPara4528" /></flowRoot>    <g
       aria-label="LIFESPAN-analysis
for 
Biologists
"
       transform="matrix(0.99775336,-0.05915016,0.05909122,0.99874857,0,0)"
       style="font-style:normal;font-weight:normal;font-size:38.72711182px;line-height:1.25;font-family:sans-serif;text-align:center;letter-spacing:0px;word-spacing:0px;text-anchor:middle;fill:#e82020;fill-opacity:1;stroke:#f9413c;stroke-width:0.26499999;stroke-miterlimit:4;stroke-dasharray:none;stroke-opacity:0.8933054"
       id="text4532">
      <path
         d="m -84.580011,110.3707 h -19.712099 q -0.73582,0 -1.08436,-0.30982 -0.30982,-0.34854 -0.30982,-1.08436 V 83.881353 q 0,-0.735816 0.30982,-1.045632 0.34854,-0.348544 1.08436,-0.348544 h 6.002702 q 0.735815,0 1.045632,0.348544 0.348544,0.309816 0.348544,1.045632 v 19.169917 h 5.305614 v -6.273789 q 0,-0.735815 0.309817,-1.045632 0.348544,-0.348544 1.084359,-0.348544 h 5.615431 q 0.735816,0 1.045632,0.348544 0.348544,0.309817 0.348544,1.045632 v 12.199039 q 0,0.73582 -0.348544,1.08436 -0.309816,0.30982 -1.045632,0.30982 z"
         style="font-style:normal;font-variant:normal;font-weight:normal;font-stretch:normal;font-size:38.72711182px;line-height:1.25;font-family:Bungee;-inkscape-font-specification:'Bungee, Normal';font-variant-ligatures:normal;font-variant-caps:normal;font-variant-numeric:normal;font-feature-settings:normal;text-align:center;writing-mode:lr-tb;text-anchor:middle;fill:#e82020;fill-opacity:1;stroke:none;stroke-width:0.26499999;stroke-miterlimit:4;stroke-dasharray:none;stroke-opacity:0.86610879"
         id="path2117" />
      <path
         d="m -77.9843,110.3707 q -0.735815,0 -1.084359,-0.30982 -0.309817,-0.34854 -0.309817,-1.08436 v -4.60853 q 0,-0.73581 0.309817,-1.04563 0.348544,-0.34854 1.084359,-0.34854 h 3.833984 V 89.961509 H -77.9843 q -0.735815,0 -1.084359,-0.309817 -0.309817,-0.348544 -0.309817,-1.084359 v -4.68598 q 0,-0.735816 0.309817,-1.045632 0.348544,-0.348544 1.084359,-0.348544 h 16.49775 q 0.735815,0 1.045632,0.348544 0.348544,0.309816 0.348544,1.045632 v 4.68598 q 0,0.735815 -0.348544,1.084359 -0.309817,0.309817 -1.045632,0.309817 h -3.75653 v 13.012311 h 3.75653 q 0.735815,0 1.045632,0.34854 0.348544,0.30982 0.348544,1.04563 v 4.60853 q 0,0.73582 -0.348544,1.08436 -0.309817,0.30982 -1.045632,0.30982 z"
         style="font-style:normal;font-variant:normal;font-weight:normal;font-stretch:normal;font-size:38.72711182px;line-height:1.25;font-family:Bungee;-inkscape-font-specification:'Bungee, Normal';font-variant-ligatures:normal;font-variant-caps:normal;font-variant-numeric:normal;font-feature-settings:normal;text-align:center;writing-mode:lr-tb;text-anchor:middle;fill:#e82020;fill-opacity:1;stroke:none;stroke-width:0.26499999;stroke-miterlimit:4;stroke-dasharray:none;stroke-opacity:0.86610879"
         id="path2119" />
      <path
         d="m -47.913908,110.3707 h -6.002703 q -0.735815,0 -1.084359,-0.30982 -0.309817,-0.34854 -0.309817,-1.08436 V 83.881353 q 0,-0.735816 0.309817,-1.045632 0.348544,-0.348544 1.084359,-0.348544 h 17.272292 q 0.735815,0 1.045632,0.348544 0.348544,0.309816 0.348544,1.045632 v 4.608526 q 0,0.735815 -0.348544,1.084359 -0.309817,0.309817 -1.045632,0.309817 h -9.875413 v 4.027619 h 6.738517 q 0.735815,0 1.045632,0.348545 0.348544,0.309816 0.348544,1.045632 v 4.647253 q 0,0.735816 -0.348544,1.084356 -0.309817,0.30982 -1.045632,0.30982 h -6.738517 v 7.62924 q 0,0.73582 -0.348544,1.08436 -0.309817,0.30982 -1.045632,0.30982 z"
         style="font-style:normal;font-variant:normal;font-weight:normal;font-stretch:normal;font-size:38.72711182px;line-height:1.25;font-family:Bungee;-inkscape-font-specification:'Bungee, Normal';font-variant-ligatures:normal;font-variant-caps:normal;font-variant-numeric:normal;font-feature-settings:normal;text-align:center;writing-mode:lr-tb;text-anchor:middle;fill:#e82020;fill-opacity:1;stroke:none;stroke-width:0.26499999;stroke-miterlimit:4;stroke-dasharray:none;stroke-opacity:0.86610879"
         id="path2121" />
      <path
         d="m -12.045341,110.3707 h -17.96938 q -0.735815,0 -1.084359,-0.30982 -0.309817,-0.34854 -0.309817,-1.08436 V 83.881353 q 0,-0.735816 0.309817,-1.045632 0.348544,-0.348544 1.084359,-0.348544 h 17.96938 q 0.735815,0 1.045632,0.348544 0.348544,0.309816 0.348544,1.045632 v 4.531072 q 0,0.735815 -0.348544,1.084359 -0.309817,0.309817 -1.045632,0.309817 h -10.688683 v 2.981987 h 7.551787 q 0.735815,0 1.045632,0.348544 0.348544,0.309817 0.348544,1.045632 v 4.143801 q 0,0.735815 -0.348544,1.084359 -0.309817,0.309817 -1.045632,0.309817 h -7.551787 v 3.330529 h 10.688683 q 0.735815,0 1.045632,0.34855 0.348544,0.30981 0.348544,1.04563 v 4.53107 q 0,0.73582 -0.348544,1.08436 -0.309817,0.30982 -1.045632,0.30982 z"
         style="font-style:normal;font-variant:normal;font-weight:normal;font-stretch:normal;font-size:38.72711182px;line-height:1.25;font-family:Bungee;-inkscape-font-specification:'Bungee, Normal';font-variant-ligatures:normal;font-variant-caps:normal;font-variant-numeric:normal;font-feature-settings:normal;text-align:center;writing-mode:lr-tb;text-anchor:middle;fill:#e82020;fill-opacity:1;stroke:none;stroke-width:0.26499999;stroke-miterlimit:4;stroke-dasharray:none;stroke-opacity:0.86610879"
         id="path2123" />
      <path
         d="M 6.8649858,110.3707 H -5.3727815 q -0.7358152,0 -1.0843592,-0.30982 -0.3098169,-0.34854 -0.3098169,-1.08436 v -4.53107 q 0,-0.73582 0.3098169,-1.04563 0.348544,-0.34855 1.0843592,-0.34855 h 10.417593 q 0.5034525,0 0.7358152,-0.30981 0.2710897,-0.34855 0.2710897,-0.81327 0,-0.65836 -0.2710897,-0.96818 -0.2323627,-0.30982 -0.7358152,-0.34855 L -0.76425524,99.798195 Q -3.4751531,99.410924 -5.1404189,98.016748 -6.7669576,96.622572 -6.7669576,93.369495 v -4.066347 q 0,-3.291804 2.1299912,-5.034524 2.1299911,-1.781447 5.886521,-1.781447 H 12.093146 q 0.735815,0 1.045632,0.348544 0.348544,0.309816 0.348544,1.045632 v 4.608526 q 0,0.735815 -0.348544,1.084359 -0.309817,0.309817 -1.045632,0.309817 H 3.0697288 q -0.5034524,0 -0.7745422,0.348544 -0.2710898,0.309817 -0.2710898,0.813269 0,0.503453 0.2710898,0.851997 0.2710898,0.348544 0.7745422,0.387271 l 5.7703397,0.774542 q 2.7108975,0.387271 4.3761635,1.781447 1.665266,1.394176 1.665266,4.647254 v 4.066351 q 0,3.2918 -2.168718,5.07325 -2.129991,1.74272 -5.8477942,1.74272 z"
         style="font-style:normal;font-variant:normal;font-weight:normal;font-stretch:normal;font-size:38.72711182px;line-height:1.25;font-family:Bungee;-inkscape-font-specification:'Bungee, Normal';font-variant-ligatures:normal;font-variant-caps:normal;font-variant-numeric:normal;font-feature-settings:normal;text-align:center;writing-mode:lr-tb;text-anchor:middle;fill:#e82020;fill-opacity:1;stroke:none;stroke-width:0.26499999;stroke-miterlimit:4;stroke-dasharray:none;stroke-opacity:0.86610879"
         id="path2125" />
      <path
         d="m 26.514761,110.3707 h -6.002703 q -0.735815,0 -1.084359,-0.30982 -0.309817,-0.34854 -0.309817,-1.08436 V 83.881353 q 0,-0.735816 0.309817,-1.045632 0.348544,-0.348544 1.084359,-0.348544 h 11.850496 q 5.266888,0 7.203243,2.091264 1.936356,2.091264 1.936356,5.460522 v 4.957071 q 0,3.369258 -1.936356,5.460526 -1.936355,2.09126 -7.203243,2.09126 h -4.453617 v 6.4287 q 0,0.73582 -0.348544,1.08436 -0.309817,0.30982 -1.045632,0.30982 z m 1.316721,-20.641554 v 5.847794 h 3.48544 q 1.123087,0 1.471631,-0.580906 0.348544,-0.580907 0.348544,-1.316722 v -2.052537 q 0,-0.735815 -0.348544,-1.316722 -0.348544,-0.580907 -1.471631,-0.580907 z"
         style="font-style:normal;font-variant:normal;font-weight:normal;font-stretch:normal;font-size:38.72711182px;line-height:1.25;font-family:Bungee;-inkscape-font-specification:'Bungee, Normal';font-variant-ligatures:normal;font-variant-caps:normal;font-variant-numeric:normal;font-feature-settings:normal;text-align:center;writing-mode:lr-tb;text-anchor:middle;fill:#e82020;fill-opacity:1;stroke:none;stroke-width:0.26499999;stroke-miterlimit:4;stroke-dasharray:none;stroke-opacity:0.86610879"
         id="path2127" />
      <path
         d="m 55.245434,90.61987 -1.820174,5.886521 h 6.080156 L 57.685242,90.61987 q -0.154909,-0.348544 -0.348544,-0.503452 -0.154909,-0.154909 -0.387271,-0.154909 h -0.968178 q -0.232363,0 -0.425998,0.154909 -0.154909,0.154908 -0.309817,0.503452 z m -2.207446,18.35665 q 0,0.73582 -0.348544,1.08436 -0.309816,0.30982 -1.045632,0.30982 h -5.692885 q -0.735815,0 -1.084359,-0.30982 -0.309817,-0.34854 -0.309817,-1.08436 V 98.752563 q 0,-1.161813 0.348544,-2.67217 0.387271,-1.510358 1.161813,-3.524167 l 3.369259,-8.791055 q 0.232363,-0.658361 0.697088,-0.968178 0.503452,-0.309816 1.277995,-0.309816 h 10.417593 q 0.735815,0 1.20054,0.309816 0.503453,0.309817 0.735815,0.968178 l 3.369259,8.791055 q 0.774542,2.013809 1.123086,3.524167 0.387271,1.510357 0.387271,2.67217 v 10.223957 q 0,0.73582 -0.348544,1.08436 -0.309816,0.30982 -1.045632,0.30982 h -5.847793 q -0.774543,0 -1.161814,-0.30982 -0.348544,-0.34854 -0.348544,-1.08436 v -5.42179 h -6.854699 z"
         style="font-style:normal;font-variant:normal;font-weight:normal;font-stretch:normal;font-size:38.72711182px;line-height:1.25;font-family:Bungee;-inkscape-font-specification:'Bungee, Normal';font-variant-ligatures:normal;font-variant-caps:normal;font-variant-numeric:normal;font-feature-settings:normal;text-align:center;writing-mode:lr-tb;text-anchor:middle;fill:#e82020;fill-opacity:1;stroke:none;stroke-width:0.26499999;stroke-miterlimit:4;stroke-dasharray:none;stroke-opacity:0.86610879"
         id="path2129" />
      <path
         d="m 80.629841,110.3707 h -5.809067 q -0.735815,0 -1.084359,-0.30982 -0.309817,-0.34854 -0.309817,-1.08436 V 83.881353 q 0,-0.735816 0.309817,-1.045632 0.348544,-0.348544 1.084359,-0.348544 h 4.02762 q 0.735815,0 1.239267,0.232362 0.54218,0.232363 1.045632,0.81327 l 7.51306,8.597418 v -8.248874 q 0,-0.735816 0.309817,-1.045632 0.348544,-0.348544 1.084359,-0.348544 h 5.809067 q 0.735815,0 1.045632,0.348544 0.348544,0.309816 0.348544,1.045632 v 25.095167 q 0,0.73582 -0.348544,1.08436 -0.309817,0.30982 -1.045632,0.30982 h -5.809067 q -0.735815,0 -1.084359,-0.30982 -0.309817,-0.34854 -0.309817,-1.08436 v -4.76343 l -6.622336,-8.016516 v 12.779946 q 0,0.73582 -0.348544,1.08436 -0.309817,0.30982 -1.045632,0.30982 z"
         style="font-style:normal;font-variant:normal;font-weight:normal;font-stretch:normal;font-size:38.72711182px;line-height:1.25;font-family:Bungee;-inkscape-font-specification:'Bungee, Normal';font-variant-ligatures:normal;font-variant-caps:normal;font-variant-numeric:normal;font-feature-settings:normal;text-align:center;writing-mode:lr-tb;text-anchor:middle;fill:#e82020;fill-opacity:1;stroke:none;stroke-width:0.26499999;stroke-miterlimit:4;stroke-dasharray:none;stroke-opacity:0.86610879"
         id="path2131" />
      <path
         d="m 102.89431,100.41783 q -0.73581,0 -1.08436,-0.30982 -0.30981,-0.348542 -0.30981,-1.084357 V 93.83422 q 0,-0.735815 0.30981,-1.045632 0.34855,-0.348544 1.08436,-0.348544 h 10.37887 q 0.73581,0 1.04563,0.348544 0.34854,0.309817 0.34854,1.045632 v 5.189433 q 0,0.735815 -0.34854,1.084357 -0.30982,0.30982 -1.04563,0.30982 z"
         style="font-style:normal;font-variant:normal;font-weight:normal;font-stretch:normal;font-size:38.72711182px;line-height:1.25;font-family:Bungee;-inkscape-font-specification:'Bungee, Normal';font-variant-ligatures:normal;font-variant-caps:normal;font-variant-numeric:normal;font-feature-settings:normal;text-align:center;writing-mode:lr-tb;text-anchor:middle;fill:#e82020;fill-opacity:1;stroke:none;stroke-width:0.26499999;stroke-miterlimit:4;stroke-dasharray:none;stroke-opacity:0.86610879"
         id="path2133" />
      <path
         d="m 128.99336,90.61987 -1.82018,5.886521 h 6.08016 l -1.82017,-5.886521 q -0.15491,-0.348544 -0.34855,-0.503452 -0.15491,-0.154909 -0.38727,-0.154909 h -0.96818 q -0.23236,0 -0.42599,0.154909 -0.15491,0.154908 -0.30982,0.503452 z m -2.20745,18.35665 q 0,0.73582 -0.34854,1.08436 -0.30982,0.30982 -1.04563,0.30982 h -5.69289 q -0.73581,0 -1.08436,-0.30982 -0.30981,-0.34854 -0.30981,-1.08436 V 98.752563 q 0,-1.161813 0.34854,-2.67217 0.38727,-1.510358 1.16181,-3.524167 l 3.36926,-8.791055 q 0.23236,-0.658361 0.69709,-0.968178 0.50345,-0.309816 1.27799,-0.309816 h 10.4176 q 0.73581,0 1.20054,0.309816 0.50345,0.309817 0.73581,0.968178 l 3.36926,8.791055 q 0.77454,2.013809 1.12309,3.524167 0.38727,1.510357 0.38727,2.67217 v 10.223957 q 0,0.73582 -0.34854,1.08436 -0.30982,0.30982 -1.04564,0.30982 h -5.84779 q -0.77454,0 -1.16181,-0.30982 -0.34855,-0.34854 -0.34855,-1.08436 v -5.42179 h -6.8547 z"
         style="font-style:normal;font-variant:normal;font-weight:normal;font-stretch:normal;font-size:38.72711182px;line-height:1.25;font-family:Bungee;-inkscape-font-specification:'Bungee, Normal';font-variant-ligatures:normal;font-variant-caps:normal;font-variant-numeric:normal;font-feature-settings:normal;text-align:center;writing-mode:lr-tb;text-anchor:middle;fill:#e82020;fill-opacity:1;stroke:none;stroke-width:0.26499999;stroke-miterlimit:4;stroke-dasharray:none;stroke-opacity:0.86610879"
         id="path2135" />
      <path
         d="m 154.37777,110.3707 h -5.80907 q -0.73582,0 -1.08436,-0.30982 -0.30982,-0.34854 -0.30982,-1.08436 V 83.881353 q 0,-0.735816 0.30982,-1.045632 0.34854,-0.348544 1.08436,-0.348544 h 4.02762 q 0.73581,0 1.23927,0.232362 0.54218,0.232363 1.04563,0.81327 l 7.51306,8.597418 v -8.248874 q 0,-0.735816 0.30981,-1.045632 0.34855,-0.348544 1.08436,-0.348544 h 5.80907 q 0.73582,0 1.04563,0.348544 0.34855,0.309816 0.34855,1.045632 v 25.095167 q 0,0.73582 -0.34855,1.08436 -0.30981,0.30982 -1.04563,0.30982 h -5.80907 q -0.73581,0 -1.08436,-0.30982 -0.30981,-0.34854 -0.30981,-1.08436 v -4.76343 l -6.62234,-8.016516 v 12.779946 q 0,0.73582 -0.34854,1.08436 -0.30982,0.30982 -1.04563,0.30982 z"
         style="font-style:normal;font-variant:normal;font-weight:normal;font-stretch:normal;font-size:38.72711182px;line-height:1.25;font-family:Bungee;-inkscape-font-specification:'Bungee, Normal';font-variant-ligatures:normal;font-variant-caps:normal;font-variant-numeric:normal;font-feature-settings:normal;text-align:center;writing-mode:lr-tb;text-anchor:middle;fill:#e82020;fill-opacity:1;stroke:none;stroke-width:0.26499999;stroke-miterlimit:4;stroke-dasharray:none;stroke-opacity:0.86610879"
         id="path2137" />
      <path
         d="m 186.47892,90.61987 -1.82017,5.886521 h 6.08016 l -1.82018,-5.886521 q -0.15491,-0.348544 -0.34854,-0.503452 -0.15491,-0.154909 -0.38727,-0.154909 h -0.96818 q -0.23236,0 -0.426,0.154909 -0.15491,0.154908 -0.30982,0.503452 z m -2.20744,18.35665 q 0,0.73582 -0.34855,1.08436 -0.30981,0.30982 -1.04563,0.30982 h -5.69288 q -0.73582,0 -1.08436,-0.30982 -0.30982,-0.34854 -0.30982,-1.08436 V 98.752563 q 0,-1.161813 0.34854,-2.67217 0.38728,-1.510358 1.16182,-3.524167 l 3.36926,-8.791055 q 0.23236,-0.658361 0.69709,-0.968178 0.50345,-0.309816 1.27799,-0.309816 h 10.41759 q 0.73582,0 1.20054,0.309816 0.50346,0.309817 0.73582,0.968178 l 3.36926,8.791055 q 0.77454,2.013809 1.12308,3.524167 0.38727,1.510357 0.38727,2.67217 v 10.223957 q 0,0.73582 -0.34854,1.08436 -0.30982,0.30982 -1.04563,0.30982 h -5.8478 q -0.77454,0 -1.16181,-0.30982 -0.34854,-0.34854 -0.34854,-1.08436 v -5.42179 h -6.8547 z"
         style="font-style:normal;font-variant:normal;font-weight:normal;font-stretch:normal;font-size:38.72711182px;line-height:1.25;font-family:Bungee;-inkscape-font-specification:'Bungee, Normal';font-variant-ligatures:normal;font-variant-caps:normal;font-variant-numeric:normal;font-feature-settings:normal;text-align:center;writing-mode:lr-tb;text-anchor:middle;fill:#e82020;fill-opacity:1;stroke:none;stroke-width:0.26499999;stroke-miterlimit:4;stroke-dasharray:none;stroke-opacity:0.86610879"
         id="path2139" />
      <path
         d="m 225.76636,110.3707 h -19.7121 q -0.73581,0 -1.08436,-0.30982 -0.30981,-0.34854 -0.30981,-1.08436 V 83.881353 q 0,-0.735816 0.30981,-1.045632 0.34855,-0.348544 1.08436,-0.348544 h 6.00271 q 0.73581,0 1.04563,0.348544 0.34854,0.309816 0.34854,1.045632 v 19.169917 h 5.30562 v -6.273789 q 0,-0.735815 0.30981,-1.045632 0.34855,-0.348544 1.08436,-0.348544 h 5.61543 q 0.73582,0 1.04564,0.348544 0.34854,0.309817 0.34854,1.045632 v 12.199039 q 0,0.73582 -0.34854,1.08436 -0.30982,0.30982 -1.04564,0.30982 z"
         style="font-style:normal;font-variant:normal;font-weight:normal;font-stretch:normal;font-size:38.72711182px;line-height:1.25;font-family:Bungee;-inkscape-font-specification:'Bungee, Normal';font-variant-ligatures:normal;font-variant-caps:normal;font-variant-numeric:normal;font-feature-settings:normal;text-align:center;writing-mode:lr-tb;text-anchor:middle;fill:#e82020;fill-opacity:1;stroke:none;stroke-width:0.26499999;stroke-miterlimit:4;stroke-dasharray:none;stroke-opacity:0.86610879"
         id="path2141" />
      <path
         d="m 243.7563,110.3707 h -6.27379 q -0.73582,0 -1.08436,-0.30982 -0.30982,-0.34854 -0.30982,-1.08436 v -4.95707 l -5.92525,-7.939057 q -0.89072,-1.200541 -1.20054,-2.091264 -0.27109,-0.890724 -0.27109,-2.672171 v -7.435605 q 0,-0.735816 0.30982,-1.045632 0.34854,-0.348544 1.08436,-0.348544 h 5.96397 q 0.73582,0 1.04564,0.348544 0.34854,0.309816 0.34854,1.045632 v 6.351246 q 0,0.387271 0.0387,0.813269 0.0387,0.425998 0.30981,0.81327 l 1.78145,2.788352 q 0.19364,0.348544 0.38727,0.503452 0.23236,0.154909 0.54218,0.154909 h 0.38727 q 0.30982,0 0.50346,-0.154909 0.23236,-0.154908 0.42599,-0.503452 l 1.78145,-2.788352 q 0.27109,-0.387272 0.30982,-0.81327 0.0387,-0.425998 0.0387,-0.813269 v -6.351246 q 0,-0.735816 0.30982,-1.045632 0.34855,-0.348544 1.08436,-0.348544 h 5.77034 q 0.73582,0 1.04563,0.348544 0.34855,0.309816 0.34855,1.045632 v 7.435605 q 0,1.781447 -0.30982,2.672171 -0.30982,0.890723 -1.16181,2.091264 l -5.88652,7.977787 v 4.91834 q 0,0.73582 -0.34855,1.08436 -0.30982,0.30982 -1.04563,0.30982 z"
         style="font-style:normal;font-variant:normal;font-weight:normal;font-stretch:normal;font-size:38.72711182px;line-height:1.25;font-family:Bungee;-inkscape-font-specification:'Bungee, Normal';font-variant-ligatures:normal;font-variant-caps:normal;font-variant-numeric:normal;font-feature-settings:normal;text-align:center;writing-mode:lr-tb;text-anchor:middle;fill:#e82020;fill-opacity:1;stroke:none;stroke-width:0.26499999;stroke-miterlimit:4;stroke-dasharray:none;stroke-opacity:0.86610879"
         id="path2143" />
      <path
         d="m 269.86139,110.3707 h -12.23776 q -0.73582,0 -1.08436,-0.30982 -0.30982,-0.34854 -0.30982,-1.08436 v -4.53107 q 0,-0.73582 0.30982,-1.04563 0.34854,-0.34855 1.08436,-0.34855 h 10.41759 q 0.50345,0 0.73581,-0.30981 0.27109,-0.34855 0.27109,-0.81327 0,-0.65836 -0.27109,-0.96818 -0.23236,-0.30982 -0.73581,-0.34855 l -5.80907,-0.813265 q -2.7109,-0.387271 -4.37616,-1.781447 -1.62654,-1.394176 -1.62654,-4.647253 v -4.066347 q 0,-3.291804 2.12999,-5.034524 2.12999,-1.781447 5.88652,-1.781447 h 10.84359 q 0.73582,0 1.04563,0.348544 0.34855,0.309816 0.34855,1.045632 v 4.608526 q 0,0.735815 -0.34855,1.084359 -0.30981,0.309817 -1.04563,0.309817 h -9.02341 q -0.50346,0 -0.77455,0.348544 -0.27109,0.309817 -0.27109,0.813269 0,0.503453 0.27109,0.851997 0.27109,0.348544 0.77455,0.387271 l 5.77034,0.774542 q 2.71089,0.387271 4.37616,1.781447 1.66526,1.394176 1.66526,4.647254 v 4.066351 q 0,3.2918 -2.16871,5.07325 -2.12999,1.74272 -5.8478,1.74272 z"
         style="font-style:normal;font-variant:normal;font-weight:normal;font-stretch:normal;font-size:38.72711182px;line-height:1.25;font-family:Bungee;-inkscape-font-specification:'Bungee, Normal';font-variant-ligatures:normal;font-variant-caps:normal;font-variant-numeric:normal;font-feature-settings:normal;text-align:center;writing-mode:lr-tb;text-anchor:middle;fill:#e82020;fill-opacity:1;stroke:none;stroke-width:0.26499999;stroke-miterlimit:4;stroke-dasharray:none;stroke-opacity:0.86610879"
         id="path2145" />
      <path
         d="m 282.88885,110.3707 q -0.73581,0 -1.08436,-0.30982 -0.30981,-0.34854 -0.30981,-1.08436 v -4.60853 q 0,-0.73581 0.30981,-1.04563 0.34855,-0.34854 1.08436,-0.34854 h 3.83399 V 89.961509 h -3.83399 q -0.73581,0 -1.08436,-0.309817 -0.30981,-0.348544 -0.30981,-1.084359 v -4.68598 q 0,-0.735816 0.30981,-1.045632 0.34855,-0.348544 1.08436,-0.348544 h 16.49775 q 0.73582,0 1.04564,0.348544 0.34854,0.309816 0.34854,1.045632 v 4.68598 q 0,0.735815 -0.34854,1.084359 -0.30982,0.309817 -1.04564,0.309817 h -3.75653 v 13.012311 h 3.75653 q 0.73582,0 1.04564,0.34854 0.34854,0.30982 0.34854,1.04563 v 4.60853 q 0,0.73582 -0.34854,1.08436 -0.30982,0.30982 -1.04564,0.30982 z"
         style="font-style:normal;font-variant:normal;font-weight:normal;font-stretch:normal;font-size:38.72711182px;line-height:1.25;font-family:Bungee;-inkscape-font-specification:'Bungee, Normal';font-variant-ligatures:normal;font-variant-caps:normal;font-variant-numeric:normal;font-feature-settings:normal;text-align:center;writing-mode:lr-tb;text-anchor:middle;fill:#e82020;fill-opacity:1;stroke:none;stroke-width:0.26499999;stroke-miterlimit:4;stroke-dasharray:none;stroke-opacity:0.86610879"
         id="path2147" />
      <path
         d="m 318.49723,110.3707 h -12.23777 q -0.73582,0 -1.08436,-0.30982 -0.30982,-0.34854 -0.30982,-1.08436 v -4.53107 q 0,-0.73582 0.30982,-1.04563 0.34854,-0.34855 1.08436,-0.34855 h 10.41759 q 0.50345,0 0.73582,-0.30981 0.27109,-0.34855 0.27109,-0.81327 0,-0.65836 -0.27109,-0.96818 -0.23237,-0.30982 -0.73582,-0.34855 l -5.80906,-0.813265 q -2.7109,-0.387271 -4.37617,-1.781447 -1.62654,-1.394176 -1.62654,-4.647253 v -4.066347 q 0,-3.291804 2.12999,-5.034524 2.13,-1.781447 5.88652,-1.781447 h 10.8436 q 0.73581,0 1.04563,0.348544 0.34854,0.309816 0.34854,1.045632 v 4.608526 q 0,0.735815 -0.34854,1.084359 -0.30982,0.309817 -1.04563,0.309817 h -9.02342 q -0.50345,0 -0.77454,0.348544 -0.27109,0.309817 -0.27109,0.813269 0,0.503453 0.27109,0.851997 0.27109,0.348544 0.77454,0.387271 l 5.77034,0.774542 q 2.7109,0.387271 4.37616,1.781447 1.66527,1.394176 1.66527,4.647254 v 4.066351 q 0,3.2918 -2.16872,5.07325 -2.12999,1.74272 -5.84779,1.74272 z"
         style="font-style:normal;font-variant:normal;font-weight:normal;font-stretch:normal;font-size:38.72711182px;line-height:1.25;font-family:Bungee;-inkscape-font-specification:'Bungee, Normal';font-variant-ligatures:normal;font-variant-caps:normal;font-variant-numeric:normal;font-feature-settings:normal;text-align:center;writing-mode:lr-tb;text-anchor:middle;fill:#e82020;fill-opacity:1;stroke:none;stroke-width:0.26499999;stroke-miterlimit:4;stroke-dasharray:none;stroke-opacity:0.86610879"
         id="path2149" />
      <path
         d="m 96.861042,120.73675 q 0.503452,-0.1549 1.123086,-0.1549 0.658361,-0.0387 1.239268,0.27109 0.619634,0.27109 1.045634,0.92945 0.426,0.61963 0.50345,1.78144 0.11618,2.36236 -0.46472,5.07326 -0.542184,2.67217 -1.626544,5.4218 -1.084359,2.7109 -2.594717,5.30561 -1.510358,2.59472 -3.330533,4.76344 -1.781448,2.12999 -3.795258,3.67908 -2.013811,1.51035 -4.066349,2.09126 l -0.425998,0.96818 q 0.464725,0.61963 0.851997,1.47163 0.387271,0.81327 0.697088,1.78145 2.362355,-0.27109 4.802164,-0.89073 2.478536,-0.61963 4.531074,-1.31672 2.052537,-0.73581 3.407987,-1.39417 1.394179,-0.65837 1.587809,-1.00691 0.23237,-0.38727 0.61964,-0.46473 0.426,-0.0774 0.77454,0.11619 0.34854,0.1549 0.54218,0.54218 0.19363,0.38727 -0.0387,0.96817 -0.15491,0.34855 -0.85199,0.89073 -0.69709,0.50345 -1.82018,1.08436 -1.123086,0.5809 -2.594717,1.20054 -1.471631,0.58091 -3.175625,1.12309 -1.703993,0.54217 -3.524168,0.96817 -1.820175,0.38727 -3.64035,0.58091 0.309817,1.47163 0.425998,2.78835 0.116182,1.31673 0.07746,2.13 -0.116182,1.97508 -0.735816,3.87271 -0.580907,1.93635 -1.510358,3.60162 -0.929451,1.66527 -2.129992,3.02072 -1.200541,1.35545 -2.517263,2.20744 -1.355449,0.852 -2.749626,1.12309 -1.432904,0.27109 -2.788353,-0.19364 -0.348544,-0.11618 -0.774543,-0.34854 -0.425998,-0.19364 -0.774542,-0.54218 -0.348544,-0.30982 -0.54218,-0.81327 -0.193636,-0.46473 -0.07745,-1.16181 0.07745,-0.46473 0.580907,-2.05254 0.464725,-1.54909 1.277995,-3.87271 0.813269,-2.32363 1.897629,-5.26689 1.08436,-2.94326 2.362355,-6.23507 -0.735816,-0.89072 -0.658361,-2.01381 0.116181,-1.62654 0.968178,-2.40108 0.813269,-0.77455 1.820175,-0.96818 1.355449,-3.33053 2.788353,-6.66107 1.471631,-3.36926 2.904534,-6.46743 1.471631,-3.09817 2.904535,-5.80907 1.432904,-2.7109 2.749626,-4.80216 1.355449,-2.09127 2.55599,-3.36926 1.200541,-1.278 2.16872,-1.54909 z m -0.890724,4.25999 q -0.619634,1.27799 -1.665267,3.56289 -1.045632,2.2849 -2.323627,5.18944 -1.277996,2.90453 -2.749627,6.27379 -1.47163,3.33054 -2.981988,6.77725 1.820175,-1.20054 3.330533,-2.90453 1.549085,-1.704 2.749626,-3.67908 1.239268,-1.97508 2.168719,-4.06635 0.929451,-2.12999 1.549085,-4.10507 0.619634,-2.01381 0.929451,-3.75654 0.348544,-1.74272 0.425998,-2.98198 0.07746,-1.54909 -0.387271,-1.58782 -0.425998,-0.0774 -1.045632,1.278 z M 83.345274,156.6368 q -0.697088,0 -1.316722,-0.11618 -1.200541,2.82708 -2.207446,5.30562 -1.045633,2.51726 -1.820175,4.41489 -0.774543,1.89763 -1.200541,3.05944 -0.464726,1.20054 -0.464726,1.43291 -0.03873,1.20054 0.464726,1.47163 0.464725,0.27109 1.239268,-0.15491 0.735815,-0.426 1.665266,-1.51036 0.929451,-1.04563 1.703994,-2.51726 0.813269,-1.47163 1.394176,-3.29181 0.580907,-1.78145 0.697089,-3.75653 0.03873,-0.38727 0.03873,-1.62654 0,-1.23927 -0.03873,-2.7109 z m -0.309817,-2.43981 q 0.116182,0.0387 0.309817,0.0387 0,-0.15491 -0.03873,-0.30982 0,-0.15491 0,-0.30981 z"
         style="font-style:normal;font-variant:normal;font-weight:normal;font-stretch:normal;font-size:38.72712708px;font-family:'Bite Chocolate';-inkscape-font-specification:'Bite Chocolate, Normal';font-variant-ligatures:normal;font-variant-caps:normal;font-variant-numeric:normal;font-feature-settings:normal;text-align:center;writing-mode:lr-tb;text-anchor:middle;fill:#e82020;fill-opacity:1;stroke:none;stroke-width:0.26499999;stroke-opacity:0.86610879"
         id="path2151" />
      <path
         d="m 95.923724,156.71426 q -0.464726,-2.05254 -0.193636,-3.75654 0.232363,-1.74272 0.968178,-3.13689 0.735816,-1.39418 1.820175,-2.40108 1.123087,-1.04564 2.362359,-1.704 0.34854,-0.852 0.92945,-1.62654 0.5809,-0.81327 1.35545,-1.39417 0.77454,-0.61964 1.66526,-1.00691 0.89073,-0.38727 1.85891,-0.46473 1.82017,-0.1549 3.13689,0.34855 1.31672,0.46472 2.16872,1.35545 0.89073,0.852 1.35545,2.01381 0.50345,1.12309 0.69709,2.24617 0.27109,1.54909 0,3.21435 -0.27109,1.66527 -0.92945,3.29181 1.97508,-0.46473 3.60162,-1.39418 1.66527,-0.96817 2.94326,-2.01381 1.31672,-1.08436 2.2849,-2.05254 1.00691,-1.0069 1.66527,-1.58781 0.34854,-0.27109 0.69709,-0.19363 0.38727,0.0387 0.65836,0.30981 0.30982,0.23237 0.38727,0.65837 0.11618,0.42599 -0.0774,0.81326 -0.50346,1.00691 -1.74272,2.47854 -1.23927,1.47163 -3.09817,2.82708 -1.82018,1.35545 -4.18253,2.40108 -2.36236,1.00691 -5.11199,1.16182 -1.58781,2.09126 -3.67907,3.44671 -2.05254,1.31672 -4.29871,1.278 -2.09127,-0.0387 -3.446718,-0.65836 -1.316722,-0.61964 -2.129992,-1.43291 -0.81327,-0.81327 -1.161814,-1.62654 -0.387271,-0.85199 -0.503452,-1.39417 z m 10.843596,-3.17563 q 1.54908,0.38727 2.98199,0.46473 0.69709,-1.47163 1.0069,-3.09817 0.34855,-1.62654 0.19364,-3.17563 -0.0775,-1.0069 -0.30982,-1.8589 -0.23236,-0.89072 -0.77454,-1.51036 -0.50345,-0.65836 -1.39418,-0.96818 -0.85199,-0.30981 -2.16872,-0.1549 -0.69708,0.11618 -1.23926,0.54218 -0.54218,0.38727 -0.92946,0.92945 1.16182,-0.15491 2.20745,0.0774 0.38727,0.0774 0.77454,0.69709 0.38727,0.61963 0.61964,1.35545 0.27109,0.69709 0.30981,1.27799 0.0387,0.54218 -0.19363,0.50346 -2.67217,-0.34855 -4.45362,0.30981 0,0.58091 0.0774,1.278 0.0775,0.69709 0.38727,1.35545 0.30982,0.61963 0.96818,1.16181 0.69709,0.50345 1.93636,0.81327 z m -0.34854,3.02072 q -1.51036,-0.426 -2.556,-0.96818 -1.0069,-0.58091 -1.66526,-1.23927 -0.65836,-0.65836 -1.00691,-1.39418 -0.30981,-0.77454 -0.46472,-1.58781 -0.426,0.89073 -0.58091,1.97509 -0.11618,1.04563 0.0387,2.20744 0.23236,1.74272 1.12308,2.55599 0.92946,0.81327 2.2849,0.77454 1.20055,0 2.24618,-0.54217 1.08436,-0.54218 1.97508,-1.43291 -0.69709,-0.11618 -1.39417,-0.34854 z"
         style="font-style:normal;font-variant:normal;font-weight:normal;font-stretch:normal;font-size:38.72712708px;font-family:'Bite Chocolate';-inkscape-font-specification:'Bite Chocolate, Normal';font-variant-ligatures:normal;font-variant-caps:normal;font-variant-numeric:normal;font-feature-settings:normal;text-align:center;writing-mode:lr-tb;text-anchor:middle;fill:#e82020;fill-opacity:1;stroke:none;stroke-width:0.26499999;stroke-opacity:0.86610879"
         id="path2153" />
      <path
         d="m 123.17915,138.58996 q 2.16872,-0.30982 3.21435,0.81327 1.04563,1.12309 0.852,3.33053 -0.0775,1.23927 -0.426,2.2849 -0.30982,1.00691 -0.77454,1.78145 0.85199,-0.23236 1.66526,-0.54218 0.852,-0.30982 1.54909,-0.58091 0.69708,-0.27109 1.20054,-0.46472 0.50345,-0.23236 0.73581,-0.27109 0.426,-0.0775 0.852,0.426 0.426,0.50345 0.73582,1.20054 0.30981,0.65836 0.42599,1.31672 0.15491,0.61963 0.0387,0.77454 -1.8589,2.59472 -2.86581,4.53108 -0.96817,1.89763 -1.35545,3.25308 -0.38727,1.35545 -0.30981,2.24617 0.0774,0.852 0.38727,1.35545 0.34854,0.50345 0.77454,0.69709 0.46473,0.19363 0.81327,0.19363 1.20054,0.0387 2.47854,-0.81327 1.31672,-0.85199 2.59471,-2.16872 1.278,-1.31672 2.43981,-2.90453 1.16182,-1.58781 2.05254,-3.02072 0.89072,-1.47163 1.47163,-2.59471 0.58091,-1.12309 0.69709,-1.51036 0.11618,-0.38727 0.38727,-0.54218 0.30982,-0.15491 0.61964,-0.0775 0.30981,0.0387 0.5809,0.30982 0.30982,0.27109 0.426,0.73582 0.11618,0.42599 -0.50345,1.82017 -0.61964,1.39418 -1.78145,3.25308 -1.12309,1.82017 -2.7109,3.83399 -1.54908,1.97508 -3.36926,3.56289 -1.78145,1.58781 -3.7178,2.51726 -1.93636,0.96818 -3.83399,0.65837 -1.97508,-0.30982 -3.1369,-1.66527 -1.12308,-1.31672 -1.31672,-3.25308 -0.19363,-1.97508 0.61964,-4.33744 0.81327,-2.36235 2.78835,-4.68598 0.0774,-0.11618 0.11618,-0.27109 0.0387,-0.19364 -0.0387,-0.30982 -0.0774,-0.15491 -0.27109,-0.15491 -0.15491,-0.0387 -0.50345,0.23237 -0.23236,0.19363 -0.92945,0.426 -0.69709,0.23236 -1.58781,0.30981 -0.89073,0.0775 -1.89763,-0.0387 -0.96818,-0.11619 -1.82018,-0.65837 -0.81327,-0.54218 -1.39417,-1.58781 -0.58091,-1.04563 -0.65836,-2.74962 -0.0387,-0.73582 0.23236,-1.82018 0.23236,-1.08436 0.81327,-2.09126 0.5809,-1.00691 1.47163,-1.78145 0.92945,-0.77454 2.16872,-0.96818 z m -1.74272,7.97779 q 0.19363,0.46472 0.77454,0.65836 0.46472,-0.65836 0.92945,-1.70399 0.50345,-1.04564 0.69709,-2.51727 0.19363,-1.23927 -0.30982,-1.62654 -0.46472,-0.38727 -1.31672,0.77455 -0.58091,0.81327 -0.852,1.51035 -0.23236,0.69709 -0.27109,1.278 0,0.54218 0.11618,0.96818 0.11619,0.38727 0.23237,0.65836 z"
         style="font-style:normal;font-variant:normal;font-weight:normal;font-stretch:normal;font-size:38.72712708px;font-family:'Bite Chocolate';-inkscape-font-specification:'Bite Chocolate, Normal';font-variant-ligatures:normal;font-variant-caps:normal;font-variant-numeric:normal;font-feature-settings:normal;text-align:center;writing-mode:lr-tb;text-anchor:middle;fill:#e82020;fill-opacity:1;stroke:none;stroke-width:0.26499999;stroke-opacity:0.86610879"
         id="path2155" />
      <path
         d="M -2.0958007,214.26275 H -16.967012 q -0.735815,0 -1.084359,-0.30982 -0.309817,-0.34854 -0.309817,-1.08435 v -25.09517 q 0,-0.73582 0.309817,-1.04563 0.348544,-0.34855 1.084359,-0.34855 h 12.353949 q 3.79525697,0 5.6154312,1.47163 1.8201743,1.4329 1.8201743,4.45362 v 1.8589 q 0,1.62654 -0.5809067,2.67217 -0.5421796,1.00691 -1.70399291,1.51036 2.47853511,0.23236 3.67907561,1.70399 1.2005405,1.47163 1.2005405,4.29871 v 3.5629 q 0,3.25307 -1.8589014,4.80216 -1.8201742,1.54908 -5.6541583,1.54908 z m -7.5517868,-21.29991 v 4.18253 h 3.2918045 q 0.7358151,0 1.0843591,-0.38727 0.3872711,-0.38727 0.3872711,-1.16182 v -1.08436 q 0,-0.77454 -0.3872711,-1.16181 -0.348544,-0.38727 -1.0843591,-0.38727 z m 0,10.1465 v 4.5698 h 5.0345245 q 0.7358151,0 1.0843591,-0.38727 0.3872712,-0.38727 0.3872712,-1.16181 v -1.51036 q 0,-0.77454 -0.3872712,-1.12309 -0.348544,-0.38727 -1.0843591,-0.38727 z"
         style="font-style:normal;font-variant:normal;font-weight:normal;font-stretch:normal;font-size:38.72711182px;line-height:1.25;font-family:Bungee;-inkscape-font-specification:'Bungee, Normal';font-variant-ligatures:normal;font-variant-caps:normal;font-variant-numeric:normal;font-feature-settings:normal;text-align:center;writing-mode:lr-tb;text-anchor:middle;fill:#e82020;fill-opacity:1;stroke:none;stroke-width:0.26499999;stroke-miterlimit:4;stroke-dasharray:none;stroke-opacity:0.86610879"
         id="path2157" />
      <path
         d="m 10.475383,214.26275 q -0.7358147,0 -1.0843587,-0.30982 -0.3098169,-0.34854 -0.3098169,-1.08435 v -4.60853 q 0,-0.73582 0.3098169,-1.04563 0.348544,-0.34855 1.0843587,-0.34855 h 3.833985 v -13.01231 h -3.833985 q -0.7358147,0 -1.0843587,-0.30981 -0.3098169,-0.34855 -0.3098169,-1.08436 v -4.68598 q 0,-0.73582 0.3098169,-1.04563 0.348544,-0.34855 1.0843587,-0.34855 h 16.49775 q 0.735815,0 1.045632,0.34855 0.348544,0.30981 0.348544,1.04563 v 4.68598 q 0,0.73581 -0.348544,1.08436 -0.309817,0.30981 -1.045632,0.30981 h -3.75653 v 13.01231 h 3.75653 q 0.735815,0 1.045632,0.34855 0.348544,0.30981 0.348544,1.04563 v 4.60853 q 0,0.73581 -0.348544,1.08435 -0.309817,0.30982 -1.045632,0.30982 z"
         style="font-style:normal;font-variant:normal;font-weight:normal;font-stretch:normal;font-size:38.72711182px;line-height:1.25;font-family:Bungee;-inkscape-font-specification:'Bungee, Normal';font-variant-ligatures:normal;font-variant-caps:normal;font-variant-numeric:normal;font-feature-settings:normal;text-align:center;writing-mode:lr-tb;text-anchor:middle;fill:#e82020;fill-opacity:1;stroke:none;stroke-width:0.26499999;stroke-miterlimit:4;stroke-dasharray:none;stroke-opacity:0.86610879"
         id="path2159" />
      <path
         d="m 56.772437,206.94333 q 0,1.78144 -0.54218,3.25307 -0.503452,1.43291 -1.858901,2.47854 -1.316722,1.0069 -3.679076,1.58781 -2.323627,0.58091 -5.925248,0.58091 -3.601621,0 -5.963975,-0.58091 -2.362354,-0.58091 -3.717803,-1.58781 -1.316722,-1.04563 -1.858901,-2.47854 -0.503453,-1.47163 -0.503453,-3.25307 v -13.20595 q 0,-1.78144 0.503453,-3.21435 0.542179,-1.47163 1.858901,-2.51726 1.355449,-1.04563 3.717803,-1.62654 2.362354,-0.58091 5.963975,-0.58091 3.601621,0 5.925248,0.58091 2.362354,0.58091 3.679076,1.62654 1.355449,1.04563 1.858901,2.51726 0.54218,1.43291 0.54218,3.21435 z m -15.258482,-1.39418 q 0,0.77454 0.580906,1.31672 0.580907,0.50346 2.672171,0.50346 2.091264,0 2.672171,-0.50346 0.580906,-0.54218 0.580906,-1.31672 v -10.41759 q 0,-0.73582 -0.580906,-1.23927 -0.580907,-0.54218 -2.672171,-0.54218 -2.091264,0 -2.672171,0.54218 -0.580906,0.50345 -0.580906,1.23927 z"
         style="font-style:normal;font-variant:normal;font-weight:normal;font-stretch:normal;font-size:38.72711182px;line-height:1.25;font-family:Bungee;-inkscape-font-specification:'Bungee, Normal';font-variant-ligatures:normal;font-variant-caps:normal;font-variant-numeric:normal;font-feature-settings:normal;text-align:center;writing-mode:lr-tb;text-anchor:middle;fill:#e82020;fill-opacity:1;stroke:none;stroke-width:0.26499999;stroke-miterlimit:4;stroke-dasharray:none;stroke-opacity:0.86610879"
         id="path2161" />
      <path
         d="m 82.771036,214.26275 h -19.7121 q -0.735815,0 -1.084359,-0.30982 -0.309817,-0.34854 -0.309817,-1.08435 v -25.09517 q 0,-0.73582 0.309817,-1.04563 0.348544,-0.34855 1.084359,-0.34855 h 6.002702 q 0.735815,0 1.045632,0.34855 0.348544,0.30981 0.348544,1.04563 v 19.16992 h 5.305615 v -6.27379 q 0,-0.73582 0.309816,-1.04564 0.348544,-0.34854 1.08436,-0.34854 h 5.615431 q 0.735815,0 1.045632,0.34854 0.348544,0.30982 0.348544,1.04564 v 12.19904 q 0,0.73581 -0.348544,1.08435 -0.309817,0.30982 -1.045632,0.30982 z"
         style="font-style:normal;font-variant:normal;font-weight:normal;font-stretch:normal;font-size:38.72711182px;line-height:1.25;font-family:Bungee;-inkscape-font-specification:'Bungee, Normal';font-variant-ligatures:normal;font-variant-caps:normal;font-variant-numeric:normal;font-feature-settings:normal;text-align:center;writing-mode:lr-tb;text-anchor:middle;fill:#e82020;fill-opacity:1;stroke:none;stroke-width:0.26499999;stroke-miterlimit:4;stroke-dasharray:none;stroke-opacity:0.86610879"
         id="path2163" />
      <path
         d="m 112.21574,206.94333 q 0,1.78144 -0.54218,3.25307 -0.50345,1.43291 -1.8589,2.47854 -1.31672,1.0069 -3.67907,1.58781 -2.32363,0.58091 -5.92525,0.58091 -3.601624,0 -5.963977,-0.58091 -2.362354,-0.58091 -3.717803,-1.58781 -1.316722,-1.04563 -1.858901,-2.47854 -0.503453,-1.47163 -0.503453,-3.25307 v -13.20595 q 0,-1.78144 0.503453,-3.21435 0.542179,-1.47163 1.858901,-2.51726 1.355449,-1.04563 3.717803,-1.62654 2.362353,-0.58091 5.963977,-0.58091 3.60162,0 5.92525,0.58091 2.36235,0.58091 3.67907,1.62654 1.35545,1.04563 1.8589,2.51726 0.54218,1.43291 0.54218,3.21435 z m -15.258479,-1.39418 q 0,0.77454 0.580906,1.31672 0.580907,0.50346 2.672173,0.50346 2.09126,0 2.67217,-0.50346 0.58091,-0.54218 0.58091,-1.31672 v -10.41759 q 0,-0.73582 -0.58091,-1.23927 -0.58091,-0.54218 -2.67217,-0.54218 -2.091266,0 -2.672173,0.54218 -0.580906,0.50345 -0.580906,1.23927 z"
         style="font-style:normal;font-variant:normal;font-weight:normal;font-stretch:normal;font-size:38.72711182px;line-height:1.25;font-family:Bungee;-inkscape-font-specification:'Bungee, Normal';font-variant-ligatures:normal;font-variant-caps:normal;font-variant-numeric:normal;font-feature-settings:normal;text-align:center;writing-mode:lr-tb;text-anchor:middle;fill:#e82020;fill-opacity:1;stroke:none;stroke-width:0.26499999;stroke-miterlimit:4;stroke-dasharray:none;stroke-opacity:0.86610879"
         id="path2165" />
      <path
         d="m 138.40798,214.26275 h -12.19904 q -4.84089,0 -7.20325,-1.93635 -2.32362,-1.93636 -2.32362,-5.96398 v -12.08286 q 0,-4.02762 2.32362,-5.96397 2.36236,-1.93636 7.20325,-1.93636 h 9.68178 q 0.73581,0 1.04563,0.34855 0.34854,0.30981 0.34854,1.04563 v 4.68598 q 0,0.73581 -0.34854,1.08436 -0.30982,0.30981 -1.04563,0.30981 h -8.05524 q -1.20054,0 -1.78145,0.50346 -0.58091,0.46472 -0.58091,1.4329 v 9.25578 q 0,0.96818 0.426,1.4329 0.46473,0.46473 1.35545,0.46473 h 3.75653 v -6.04143 q 0,-0.73582 0.30982,-1.04563 0.34854,-0.34855 1.08436,-0.34855 h 6.0027 q 0.73581,0 1.04563,0.34855 0.34854,0.30981 0.34854,1.04563 v 11.96668 q 0,0.73581 -0.34854,1.08435 -0.30982,0.30982 -1.04563,0.30982 z"
         style="font-style:normal;font-variant:normal;font-weight:normal;font-stretch:normal;font-size:38.72711182px;line-height:1.25;font-family:Bungee;-inkscape-font-specification:'Bungee, Normal';font-variant-ligatures:normal;font-variant-caps:normal;font-variant-numeric:normal;font-feature-settings:normal;text-align:center;writing-mode:lr-tb;text-anchor:middle;fill:#e82020;fill-opacity:1;stroke:none;stroke-width:0.26499999;stroke-miterlimit:4;stroke-dasharray:none;stroke-opacity:0.86610879"
         id="path2167" />
      <path
         d="m 145.33952,214.26275 q -0.73582,0 -1.08436,-0.30982 -0.30982,-0.34854 -0.30982,-1.08435 v -4.60853 q 0,-0.73582 0.30982,-1.04563 0.34854,-0.34855 1.08436,-0.34855 h 3.83398 v -13.01231 h -3.83398 q -0.73582,0 -1.08436,-0.30981 -0.30982,-0.34855 -0.30982,-1.08436 v -4.68598 q 0,-0.73582 0.30982,-1.04563 0.34854,-0.34855 1.08436,-0.34855 h 16.49775 q 0.73581,0 1.04563,0.34855 0.34854,0.30981 0.34854,1.04563 v 4.68598 q 0,0.73581 -0.34854,1.08436 -0.30982,0.30981 -1.04563,0.30981 h -3.75653 v 13.01231 h 3.75653 q 0.73581,0 1.04563,0.34855 0.34854,0.30981 0.34854,1.04563 v 4.60853 q 0,0.73581 -0.34854,1.08435 -0.30982,0.30982 -1.04563,0.30982 z"
         style="font-style:normal;font-variant:normal;font-weight:normal;font-stretch:normal;font-size:38.72711182px;line-height:1.25;font-family:Bungee;-inkscape-font-specification:'Bungee, Normal';font-variant-ligatures:normal;font-variant-caps:normal;font-variant-numeric:normal;font-feature-settings:normal;text-align:center;writing-mode:lr-tb;text-anchor:middle;fill:#e82020;fill-opacity:1;stroke:none;stroke-width:0.26499999;stroke-miterlimit:4;stroke-dasharray:none;stroke-opacity:0.86610879"
         id="path2169" />
      <path
         d="m 180.94789,214.26275 h -12.23777 q -0.73581,0 -1.08436,-0.30982 -0.30981,-0.34854 -0.30981,-1.08435 v -4.53108 q 0,-0.73581 0.30981,-1.04563 0.34855,-0.34854 1.08436,-0.34854 h 10.4176 q 0.50345,0 0.73581,-0.30982 0.27109,-0.34854 0.27109,-0.81327 0,-0.65836 -0.27109,-0.96818 -0.23236,-0.30981 -0.73581,-0.34854 l -5.80907,-0.81327 q -2.7109,-0.38727 -4.37617,-1.78145 -1.62653,-1.39417 -1.62653,-4.64725 v -4.06635 q 0,-3.2918 2.12999,-5.03452 2.12999,-1.78145 5.88652,-1.78145 h 10.84359 q 0.73581,0 1.04563,0.34855 0.34855,0.30981 0.34855,1.04563 v 4.60852 q 0,0.73582 -0.34855,1.08436 -0.30982,0.30982 -1.04563,0.30982 h -9.02342 q -0.50345,0 -0.77454,0.34854 -0.27109,0.30982 -0.27109,0.81327 0,0.50346 0.27109,0.852 0.27109,0.34854 0.77454,0.38727 l 5.77034,0.77454 q 2.7109,0.38727 4.37617,1.78145 1.66526,1.39418 1.66526,4.64725 v 4.06635 q 0,3.2918 -2.16872,5.07325 -2.12999,1.74272 -5.84779,1.74272 z"
         style="font-style:normal;font-variant:normal;font-weight:normal;font-stretch:normal;font-size:38.72711182px;line-height:1.25;font-family:Bungee;-inkscape-font-specification:'Bungee, Normal';font-variant-ligatures:normal;font-variant-caps:normal;font-variant-numeric:normal;font-feature-settings:normal;text-align:center;writing-mode:lr-tb;text-anchor:middle;fill:#e82020;fill-opacity:1;stroke:none;stroke-width:0.26499999;stroke-miterlimit:4;stroke-dasharray:none;stroke-opacity:0.86610879"
         id="path2171" />
      <path
         d="m 205.98981,214.26275 h -6.27379 q -0.73582,0 -1.08436,-0.30982 -0.30982,-0.34854 -0.30982,-1.08435 v -19.01502 h -5.69289 q -0.73581,0 -1.08436,-0.30981 -0.30981,-0.34855 -0.30981,-1.08436 v -4.68598 q 0,-0.73582 0.30981,-1.04563 0.34855,-0.34855 1.08436,-0.34855 h 20.44792 q 0.73581,0 1.04563,0.34855 0.34854,0.30981 0.34854,1.04563 v 4.68598 q 0,0.73581 -0.34854,1.08436 -0.30982,0.30981 -1.04563,0.30981 h -5.69289 v 19.01502 q 0,0.73581 -0.34854,1.08435 -0.30982,0.30982 -1.04563,0.30982 z"
         style="font-style:normal;font-variant:normal;font-weight:normal;font-stretch:normal;font-size:38.72711182px;line-height:1.25;font-family:Bungee;-inkscape-font-specification:'Bungee, Normal';font-variant-ligatures:normal;font-variant-caps:normal;font-variant-numeric:normal;font-feature-settings:normal;text-align:center;writing-mode:lr-tb;text-anchor:middle;fill:#e82020;fill-opacity:1;stroke:none;stroke-width:0.26499999;stroke-miterlimit:4;stroke-dasharray:none;stroke-opacity:0.86610879"
         id="path2173" />
      <path
         d="m 231.17212,214.26275 h -12.23777 q -0.73582,0 -1.08436,-0.30982 -0.30982,-0.34854 -0.30982,-1.08435 v -4.53108 q 0,-0.73581 0.30982,-1.04563 0.34854,-0.34854 1.08436,-0.34854 h 10.41759 q 0.50346,0 0.73582,-0.30982 0.27109,-0.34854 0.27109,-0.81327 0,-0.65836 -0.27109,-0.96818 -0.23236,-0.30981 -0.73582,-0.34854 l -5.80906,-0.81327 q -2.7109,-0.38727 -4.37617,-1.78145 -1.62654,-1.39417 -1.62654,-4.64725 v -4.06635 q 0,-3.2918 2.13,-5.03452 2.12999,-1.78145 5.88652,-1.78145 h 10.84359 q 0.73581,0 1.04563,0.34855 0.34854,0.30981 0.34854,1.04563 v 4.60852 q 0,0.73582 -0.34854,1.08436 -0.30982,0.30982 -1.04563,0.30982 h -9.02342 q -0.50345,0 -0.77454,0.34854 -0.27109,0.30982 -0.27109,0.81327 0,0.50346 0.27109,0.852 0.27109,0.34854 0.77454,0.38727 l 5.77034,0.77454 q 2.7109,0.38727 4.37616,1.78145 1.66527,1.39418 1.66527,4.64725 v 4.06635 q 0,3.2918 -2.16872,5.07325 -2.12999,1.74272 -5.84779,1.74272 z"
         style="font-style:normal;font-variant:normal;font-weight:normal;font-stretch:normal;font-size:38.72711182px;line-height:1.25;font-family:Bungee;-inkscape-font-specification:'Bungee, Normal';font-variant-ligatures:normal;font-variant-caps:normal;font-variant-numeric:normal;font-feature-settings:normal;text-align:center;writing-mode:lr-tb;text-anchor:middle;fill:#e82020;fill-opacity:1;stroke:none;stroke-width:0.26499999;stroke-miterlimit:4;stroke-dasharray:none;stroke-opacity:0.86610879"
         id="path2175" />
    </g>
    <flowRoot
       xml:space="preserve"
       id="flowRoot4540"
       style="font-style:normal;font-weight:normal;font-size:96px;line-height:10.25;font-family:sans-serif;letter-spacing:0px;word-spacing:0px;fill:#000000;fill-opacity:1;stroke:none"
       transform="scale(0.26458333)"><flowRegion
         id="flowRegion4542"><rect
           id="rect4544"
           width="600"
           height="1922.8572"
           x="180"
           y="285.37683" /></flowRegion><flowPara
         id="flowPara4546" /></flowRoot>  </g>
</svg>
